<?xml version="1.0" encoding="UTF-8"?>
<svg id="Layer_2" xmlns="http://www.w3.org/2000/svg" viewBox="0 0 375.19 243.62">
  <defs>
    <style>
      .cls-1 {
        fill: #161616;
        stroke: #161616;
        stroke-miterlimit: 10;
        stroke-width: .5px;
      }
    </style>
  </defs>
  <g id="Layer_1-2" data-name="Layer_1">
    <g>
      <g>
        <path class="cls-1" d="M138.86,57.39c-.21-.06-.41-.17-.63-.25-.32-.12-.64-.25-.96-.32-.25-.06-.52-.05-.79-.07-.37-.02-.74-.1-1.1-.05-1,.14-1.99.34-2.98-.13-.27-.13-.69-.06-1.01.03-.59.17-1.15.43-1.77.47-.28.02-.57.04-.86.05-.37,0-.76.04-1.12-.03-.79-.17-1.58-.16-2.37-.14-.3,0-.6.04-.89,0-.41-.05-.8-.2-1.21-.23-.71-.05-1.43-.04-2.14-.06-.11,0-.22-.03-.33-.04-.74-.05-1.46-.28-2.22-.19-.68.08-1.37,0-2.05.03-.52.02-1.03.05-1.54.13-.18.03-.32.21-.49.32-.17.11-.33.28-.51.31-.43.07-.88.06-1.31.12-.64.08-1.27.21-1.91.27-1.02.09-2.05.13-3.07.22-.54.05-1.09.11-1.61.25-.67.17-1.3.43-2.02.4-.55-.03-1.1.04-1.65.09-.13.01-.28.14-.39.11-.51-.13-1.01-.08-1.5.08-.1.03-.22.02-.33,0-.2-.02-.41-.08-.61-.06-.65.09-1.3.2-1.94.31-.29.05-.57.12-.85.2-.31.09-.62.26-.93.28-1.39.1-2.77.18-4.16.24-.38.01-.76-.06-1.13-.14-.35-.07-.68-.21-1.03-.3-.29-.08-.6-.13-.89-.21-.72-.18-1.44-.38-2.16-.56-.65-.16-1.3-.28-1.94-.45-.29-.08-.55-.23-.82-.37-.28-.14-.53-.35-.81-.46-.48-.18-.82-.52-1.15-.88-.47-.5-.92-1.02-1.37-1.54-.06-.07-.16-.16-.16-.24-.01-.51-.53-.87-.43-1.42,0-.04-.04-.1-.08-.13-.41-.3-.39-.82-.56-1.22-.16-.38-.34-.78-.48-1.18-.27-.79-.53-1.59-.53-2.42,0-.8.1-1.6.17-2.39.01-.12.11-.26.2-.36.52-.5.62-1.09.43-1.76-.07-.24-.26-.48-.23-.7.09-.76-.06-1.51.06-2.27.13-.81.19-1.63.4-2.44.16-.63.2-1.29.3-1.94.01-.1.06-.19.08-.28.09-.41.17-.82.27-1.23.11-.46.19-.94.36-1.37.18-.46.51-.85.69-1.31.26-.65.46-1.32.66-1.98.12-.4.18-.83.29-1.24.18-.68.42-1.35.54-2.05.12-.71.15-1.43.31-2.14.14-.61.13-1.26.19-1.89.06-.61.16-1.22.17-1.82,0-.67.23-1.32.04-2.01-.11-.4.02-.87.03-1.31.02-.67.07-1.34.05-2.01-.01-.47-.05-.96-.21-1.4-.29-.79-.91-1.38-1.53-1.91-.65-.56-1.45-.87-2.33-.86-.49,0-.98.04-1.41.33-.33.23-.67.47-1.04.62-.42.17-.87.25-1.31.36-.24.06-.49.1-.64.35-.05.08-.2.1-.31.11-.5.05-1.02.01-1.43.38-.35.31-.73.59-1.02.95-.29.38-.46.85-.72,1.25-.28.44-.59.86-.9,1.27-.39.5-.8.98-1.19,1.47-.26.33-.47.71-.76,1.03-.26.28-.6.48-.87.75-.33.33-.59.74-.95,1.04-.66.54-1.02,1.3-1.52,1.96-.34.45-.63.95-.98,1.39-.36.44-.79.83-1.18,1.25-.2.22-.41.43-.58.68-.35.51-.64,1.06-1.01,1.56-.35.47-.78.87-1.16,1.32-.44.52-.9,1.03-1.3,1.59-.41.57-.75,1.18-1.12,1.78-.25.4-.49.8-.74,1.2-.15.24-.3.49-.43.74-.18.36-.32.75-.52,1.1-.32.58-.67,1.13-1.01,1.7-.27.45-.54.9-.84,1.34-.26.38-.56.74-.84,1.11-.49.65-.94,1.32-1.46,1.95-.4.49-.85.93-1.3,1.37-.23.22-.49.5-.77.55-.8.16-1.62.24-2.43.3-.46.03-.93-.06-1.4-.07-1.1-.03-2.21-.03-3.31-.07-.79-.02-1.59-.13-2.38-.1-.37.01-.73-.02-1.1,0-.22.02-.44.01-.66.01-.71,0-1.39-.15-2.07-.34-.53-.14-1.1-.14-1.65-.2-.8-.09-1.6-.14-2.38-.38-.98-.3-1.91-.67-2.76-1.24-.18-.12-.33-.3-.49-.44-.08-.07-.17-.12-.26-.18-.06-.04-.14-.06-.18-.12-.24-.32-.47-.64-.7-.96-.35-.5-.87-.8-1.35-1.15-.63-.45-1.36-.34-1.82.23-.46.57-.5,1.75.16,2.25.4.3.83.57,1.26.8.61.33,1.01.77,1.17,1.47.05.24.26.5.48.62.7.41,1.28,1.02,2.08,1.27.2.06.4.11.58.2.52.28,1.08.32,1.65.3.14,0,.29,0,.43.03.63.14,1.25.3,1.88.44.34.08.68.15,1.01.24.64.16,1.28.4,1.93.49.97.12,1.95.15,2.92.2,1.02.05,2.04.06,3.07.1.81.03,1.61.06,2.42.09.08,0,.15.02.27.04-.13.24-.21.49-.36.66-.36.4-.67.86-1.26,1-.7.17-1.37.51-1.65,1.18-.24.57-.61.87-1.12,1.11-.17.08-.34.14-.49.25-.84.62-1.78.98-2.8,1.17-.67.13-1.35.22-1.98.45-.78.28-1.57.17-2.35.17-1.14-.01-2.27-.13-3.41-.19-.32-.02-.64.03-.96.01-.65-.03-1.3-.09-1.95-.13-.39-.02-.78,0-1.16-.06-.43-.06-.85-.2-1.28-.29-.46-.09-.92-.16-1.38-.22-.9-.12-1.8-.23-2.7-.35-.55-.08-1.11-.13-1.64-.27-.89-.24-1.77-.54-2.65-.83-.53-.17-1.05-.43-1.59-.55-.79-.17-1.35-.67-1.94-1.13-.56-.44-1.12-.88-1.7-1.3-.63-.45-1.27-.91-1.76-1.52-.43-.54-.87-1.08-1.24-1.66-.24-.38-.47-.81-.52-1.25-.09-.76-.41-1.41-.69-2.09-.09-.23-.22-.44-.32-.67-.14-.32-.29-.64-.42-.97-.05-.13-.04-.31-.12-.41-.43-.55-.49-1.23-.62-1.86-.12-.61-.08-1.25-.12-1.88-.01-.25-.05-.5-.06-.75-.01-.45-.08-.91,0-1.34.07-.36.33-.69.5-1.03.11-.22.27-.44.32-.67.1-.41.14-.83.19-1.24.04-.38.11-.76.08-1.14-.05-.66-.18-1.31-.24-1.97-.02-.19.04-.44.16-.59.3-.4.64-.76.98-1.13.45-.49.92-.97,1.35-1.48.47-.57.99-1.1,1.24-1.84.14-.42.45-.84.78-1.13.63-.56,1.34-1.04,2.01-1.54.3-.23.62-.43.91-.67.28-.23.56-.48.8-.75.47-.53.93-1.07,1.5-1.49.28-.21.57-.42.87-.61.25-.16.52-.29.79-.43.58-.31,1.14-.66,1.75-.9.6-.23,1.24-.37,1.87-.51.68-.15,1.38-.26,2.07-.35.47-.06.93-.06,1.39-.3.34-.18.79-.14,1.2-.16.48-.02.97.01,1.46,0,.7-.03,1.4-.09,2.11-.15.5-.04,1-.09,1.5-.13.31-.02.62-.07.93-.05.53.04,1.01.25,1.51.46.68.28,1.39.49,2.1.64,1.06.22,1.98.69,2.8,1.39.1.09.23.15.35.22.46.3.95.57,1.39.91.34.26.59.64.93.91.6.48,1.07,1.07,1.51,1.68.26.35.48.73.74,1.08.31.42.67.8.96,1.23.14.21.16.5.3.71.27.39.65.62,1.09.8.86.34,1.75.16,2.32-.55.29-.36.37-.77.25-1.19-.21-.76-.61-1.44-1.13-2.02-.72-.81-1.26-1.77-2.07-2.51-.43-.39-.75-.91-1.15-1.34-.39-.43-.81-.85-1.24-1.25-.17-.16-.39-.26-.57-.41-.36-.31-.68-.69-1.08-.93-.69-.43-1.43-.8-2.16-1.17-.49-.25-.97-.51-1.49-.67-.82-.26-1.66-.43-2.49-.64-.29-.08-.59-.16-.86-.3-.45-.23-.92-.37-1.43-.38-.3,0-.6-.06-.9-.07-.09,0-.19.04-.28.07-.08.02-.17.07-.25.06-.28-.02-.56-.09-.84-.08-.92.03-1.85.08-2.77.13-.02,0-.04,0-.07.01-.29.05-.58.13-.88.16-.76.07-1.53.11-2.3.19-.21.02-.4.16-.61.2-.62.11-1.25.2-1.87.3-.74.13-1.49.24-2.22.41-.6.14-1.19.34-1.77.54-.34.11-.69.23-1,.4-.73.41-1.47.82-2.14,1.31-.76.56-1.47,1.19-2.18,1.82-.34.3-.61.66-.93.97-.21.2-.45.37-.67.55-.36.29-.71.63-1.1.88-.63.4-1.26.8-1.77,1.34-.45.48-.86.99-1.1,1.63-.08.21-.17.43-.31.6-.34.43-.72.83-1.07,1.26-.32.4-.58.86-.94,1.22-.54.56-1.06,1.13-1.44,1.81-.14.25-.3.54-.29.8,0,1.19.05,2.37.12,3.56.04.66-.26,1.19-.56,1.72-.29.51-.56,1.02-.51,1.64.08.91.13,1.83.19,2.74.01.16.02.33.06.49.13.53.27,1.07.4,1.6.12.46.22.93.36,1.39.12.41.24.82.41,1.21.21.47.51.9.71,1.38.21.52.36,1.08.52,1.62.24.84.56,1.63,1.04,2.38.62.96,1.28,1.87,2.14,2.64.36.32.75.62,1.13.93.28.23.59.43.87.66.53.44,1.02.93,1.57,1.35.34.27.76.44,1.11.69.49.35,1.03.52,1.61.61.22.03.44.09.67.13.47.09.93.23,1.4.25.54.02,1.02.2,1.51.35.17.05.34.07.5.13.53.19,1.04.45,1.58.58.78.19,1.58.29,2.38.44.67.12,1.34.25,2.02.37.45.08.89.17,1.34.25.56.1,1.13.21,1.7.3.7.11,1.4.23,2.11.32.26.03.52,0,.78-.02.11,0,.23-.08.34-.08.42-.02.83-.02,1.25-.02.44,0,.88,0,1.32.03.71.04,1.4-.06,2.08-.25.37-.11.77-.09,1.14-.21.62-.2,1.21-.47,1.82-.72.32-.13.64-.27.97-.39.42-.15.84-.29,1.26-.42.47-.15.95-.25,1.4-.43.5-.19.96-.46,1.45-.68.43-.2.89-.37,1.3-.61.41-.23.8-.51.97-.98.06-.16.06-.37.16-.48.32-.36.68-.67,1-1.02.21-.23.49-.49.52-.75.04-.42.42-.57.55-.91.12-.31.39-.58.63-.83.16-.17.36-.39.57-.42.72-.13,1.46-.18,2.19-.28.53-.07,1.07-.17,1.6-.24.13-.02.26-.02.4-.03.47-.02.95,0,1.41-.07.57-.1,1.12-.32,1.7-.43.61-.12,1.22-.2,1.84-.28.55-.07,1.1-.11,1.65-.16.31-.03.62-.06.92-.12.42-.08.84-.23,1.27-.29.95-.12,1.9.09,2.85.15.61.04,1.26.03,1.84-.13.5-.13.96-.12,1.44-.06.26.03.53.07.79.05.97-.05,1.94-.14,2.91-.18,1.37-.06,2.73-.11,4.06.38.62.23.76.36.57.81-.12.28-.21.58-.27.88-.09.43-.13.88-.22,1.32-.28,1.37-.29,2.74-.09,4.11.05.31.14.67.34.87.39.39.46.91.65,1.37.18.42.3.86.46,1.28.06.16.16.3.27.44.35.43.71.85,1.08,1.27.33.37.64.79,1.02,1.09.58.47,1.21.9,1.86,1.27.52.3,1.1.52,1.67.73.56.2,1.14.35,1.72.5.67.17,1.35.31,2.03.46.68.15,1.36.29,2.04.44.18.04.34.16.52.17.94.06,1.89.1,2.83.12.27,0,.55-.11.83-.13.79-.06,1.58-.09,2.37-.14.41-.03.82,0,1.18-.27.15-.11.35-.19.53-.21.85-.11,1.66-.5,2.54-.41.24.02.48-.01.72-.05.78-.11,1.55-.25,2.33-.35.86-.11,1.75-.09,2.53-.56.21-.13.45-.24.69-.29.6-.11,1.22-.15,1.82-.27.76-.15,1.51-.37,2.27-.55.82-.19,1.62-.5,2.49-.49.33,0,.66-.14.99-.19.21-.03.43-.02.65,0,.15,0,.29.08.44.08,1.69-.09,3.39-.16,5.08-.09.02,0,.03.01.05.01.83-.06,1.68.04,2.5.18.44.08.88.19,1.31.34,0,0,0-.01,0-.02.09,0,.16-.02.22,0,.73.1,1.47.21,2.2.31.25.03.51.02.75.08.74.2,1.48.38,2.24.32.49-.04.97-.14,1.45-.23.56-.1,1.11-.22,1.66-.32.07-.01.15,0,.21.03.49.2,1,.33,1.54.36.53.04.95-.23,1.41-.38.2-.07.34-.04.5.12.14.14.34.24.53.28.45.09.9.15,1.36.2.27.03.54,0,.81.01.68.02,1.22-.37,1.36-.98.18-.81-.39-1.76-1.17-1.98ZM77.43,37.01c-.07.29-.21.57-.3.86-.07.22-.12.44-.17.66-.11.49-.21.98-.31,1.47-.04.24-.06.48-.08.72-.04.52-.07,1.04-.11,1.56-.01.11-.05.24-.12.32-.16.18-.36.33-.54.5-.27.25-.56.1-.82,0-.51-.17-.99-.43-1.51-.54-.4-.08-.86-.08-1.21.25-.05.05-.15.06-.22.06-.64.01-1.28.04-1.91.02-.43-.02-.86-.11-1.29-.19-.22-.04-.44-.12-.65-.17-1.02-.25-2.05-.08-3.08-.08-.56,0-1.12-.09-1.67-.11-.22,0-.45.1-.67.11-.35.01-.7-.02-1.04-.03-.54-.01-1.05.01-1.58.24-.49.21-1.04.27-1.57.35-1.03.15-2.07.26-3.1.39-.48.06-.97.11-1.43.17.36-.39.75-.77,1.08-1.2.25-.32.43-.71.62-1.07.17-.31.41-.53.72-.71.68-.4,1.24-.93,1.59-1.67.13-.28.35-.51.51-.78.21-.33.4-.67.6-1.01.35-.59.7-1.18,1.05-1.77.35-.58.68-1.17,1.04-1.75.19-.32.42-.61.63-.92.33-.47.64-.95.98-1.4.31-.41.55-.87.99-1.2.35-.27.67-.61.83-1.07.1-.27.33-.49.53-.71.48-.55,1.01-1.07,1.44-1.65.38-.5.64-1.07.98-1.6.32-.5.65-.98.99-1.46.24-.34.5-.67.78-.97.32-.34.72-.61,1.02-.96.33-.37.63-.78.89-1.21.4-.68.79-1.36,1.39-1.89.24-.21.44-.47.6-.75.25-.45.65-.78.85-1.28.17-.42.48-.81.97-1.03.85-.37,1.7-.66,2.65-.64.24,0,.5-.16.72-.29.26-.16.45.02.52.15.21.39.44.8.49,1.23.07.58-.03,1.19-.01,1.78,0,.35.1.71.15,1.06,0,.03.02.07.01.1-.28.59-.06,1.21-.11,1.81-.06.67-.19,1.34-.28,2.01-.05.36-.07.72-.09,1.08-.05.9-.09,1.79-.13,2.69-.03.85-.03,1.7-.1,2.54-.06.71-.18,1.42-.32,2.13-.15.77-.35,1.53-.52,2.29-.12.58-.21,1.17-.32,1.76-.12.59-.24,1.19-.39,1.78Z"/>
        <path class="cls-1" d="M139.97,53c-.55-.08-1.26-.19-1.97-.28-.45-.05-.9-.05-1.35-.1-.69-.08-1.38-.2-2.08-.28-.44-.05-.88-.04-1.32-.07-.73-.05-1.47-.1-2.2-.16-.5-.04-1-.08-1.49-.17-.45-.08-.89-.24-1.35-.34-.52-.11-1.06-.17-1.58-.29-.71-.16-1.41-.35-2.12-.52-.36-.09-.74-.11-1.09-.22-1.56-.5-3.16-.39-4.76-.28-.86.06-1.71.1-2.57.16-.22.02-.44.12-.66.14-.8.08-1.6.16-2.4.2-.57.03-1.14.02-1.71-.02-.5-.03-.99-.11-1.49-.16-.17-.02-.35-.04-.53-.02-.81.06-1.64.08-2.44.22-.76.13-1.51.34-2.23.6-.55.2-1.04.55-1.57.82-.27.14-.54.28-.82.37-.48.16-.97.3-1.47.4-.59.12-1.19.22-1.79.26-.51.03-1.02-.03-1.53-.05-.1,0-.2-.02-.3,0-.66.06-1.33.16-1.99.17-1.23.02-2.46.02-3.68-.04-.69-.04-1.35-.31-1.97-.64-.54-.29-.98-.7-1.39-1.14-.51-.55-.9-1.16-.98-1.93-.08-.67-.25-1.34-.28-2.01-.02-.62.09-1.24.18-1.86.02-.17.15-.33.24-.49.27-.54.52-1.09.82-1.61.26-.45.6-.86.89-1.3.24-.37.43-.77.67-1.14.34-.53.72-1.05,1.07-1.58.4-.61.79-1.22,1.18-1.83.03-.05.05-.13.05-.19,0-.7.32-1.26.69-1.83.46-.7.86-1.45,1.32-2.14.29-.43.47-.86.46-1.39,0-.3.16-.6.25-.9.11-.36.27-.71.32-1.08.1-.73.39-1.39.64-2.06.15-.41.29-.82.45-1.22.04-.12.14-.22.18-.34.07-.25.13-.51.15-.76.05-.85.02-1.71.12-2.55.05-.45.1-.88-.03-1.32-.01-.04.02-.1.03-.15.15-.53.1-1.07.06-1.61-.03-.34.08-.69.08-1.03,0-.46.02-.93-.07-1.38-.21-1.01-.75-1.89-1.17-2.83-.13-.28-.13-.62-.26-.91-.27-.59-.52-1.18-.97-1.69-.33-.37-.73-.57-1.09-.86-.38-.31-.75-.63-1.1-.97-.27-.26-.5-.56-.75-.84-.06-.07-.14-.13-.23-.16-1-.43-1.98-.88-2.99-1.27-.58-.23-1.19-.39-1.79-.55-.75-.2-1.51-.36-2.27-.54-.47-.11-.94-.18-1.41-.31-.95-.25-1.91-.37-2.9-.37-.66,0-1.33-.01-1.98-.14-1.02-.19-2.03-.12-3.05-.08-.72.03-1.45-.05-2.17-.06-.47,0-.95.06-1.42.04-.41-.02-.81-.09-1.21-.16-.23-.04-.42-.08-.64.1-.16.13-.43.17-.65.18-1.03.03-2.07.07-3.1.04-.42-.01-.83-.19-1.25-.28-.19-.04-.39-.08-.59-.08-.63.01-1.19-.23-1.76-.46-.27-.11-.58-.18-.87-.21-.3-.03-.62.04-.92.01-.23-.02-.48-.08-.67-.2-.38-.24-.73-.33-1.19-.23-.3.07-.69-.03-.97-.19-.51-.3-1-.67-1.45-1.06-.46-.41-.34-1.32.15-1.7.39-.29.81-.49,1.3-.52.59-.03,1.19-.12,1.77-.05.61.07,1.22.26,1.8.45.29.1.43-.13.65-.16.19-.03.38-.03.57-.04.05,0,.11.03.16.03.49-.04.9.14,1.23.47.31.32.7.24,1.04.21.39-.04.68.19,1.02.24.35.05.73.11,1.06.04.6-.14,1.18-.13,1.78.01.4.09.79.18,1.13.44.08.06.24.08.35.05.25-.05.45.01.67.14.43.24.89.42,1.34.62.05.02.12.02.16,0,.6-.27,1.21.04,1.82-.02.31-.03.63.1.95.16.46.09.88-.03,1.3-.19.14-.05.3-.08.45-.07.79.05,1.58.12,2.37.17.64.04,1.29.07,1.93.1.45.02.93-.08,1.35.04.68.2,1.33-.06,1.98.02.48.06.95.25,1.43.38.09.03.19.03.29.06.5.14,1,.27,1.48.44.16.06.3.24.4.39.27.42.67.6,1.13.73.6.16,1.18.41,1.77.6.93.29,1.7.85,2.49,1.4.3.21.68.32,1.04.41.7.17,1.26.53,1.73,1.09.36.44.82.8,1.2,1.23.3.33.54.72.83,1.06.31.37.57.77.74,1.21.04.11.09.23.09.35-.03.75.37,1.38.6,2.05.12.35.39.65.57.98.09.16.13.33.2.5.13.35.26.71.37,1.07.05.17.1.37.08.54-.05.3-.22.59-.24.89-.05.76-.62,1.41-.45,2.21.02.09,0,.21-.04.29-.29.45-.18.96-.24,1.44-.08.71-.22,1.41-.29,2.12-.04.48.02.97-.01,1.45-.02.25-.11.51-.22.74-.4.8-.89,1.56-1.21,2.39-.33.87-.5,1.8-.72,2.71-.15.6-.24,1.21-.42,1.79-.09.28-.34.51-.49.78-.37.68-.71,1.38-1.09,2.05-.26.46-.28.97-.43,1.46-.14.45-.41.87-.65,1.29-.34.59-.73,1.17-1.07,1.76-.43.73-.83,1.48-1.25,2.21-.14.24-.31.47-.44.71-.28.52-.5,1.08-.84,1.56-.47.67-.17,1.36-.18,2.04,0,.09.03.17.03.26,0,.68.33.99.99,1.21.65.21,1.29.17,1.95.16.82-.01,1.64.08,2.46.12.43.02.86-.02,1.28,0,.27,0,.54.11.8.07.65-.1,1.3-.26,1.95-.39.19-.04.39-.06.58-.1.64-.16,1.27-.32,1.82-.73.4-.29.89-.44,1.34-.67.64-.32,1.35-.4,2.01-.61.87-.27,1.76-.27,2.63-.37.28-.03.56-.15.83-.14.95.03,1.91.12,2.86.14.63.01,1.26-.06,1.89-.07.24,0,.48.08.71.07.97-.03,1.94-.09,2.91-.11.96-.03,1.92-.05,2.87-.03.59.01,1.19.06,1.77.15.51.08,1.01.24,1.52.37.69.17,1.38.35,2.08.52.15.04.31.02.46.06.59.13,1.18.27,1.77.38.6.11,1.2.21,1.81.27.81.08,1.61.11,2.42.16.68.04,1.35.06,2.03.13.55.06,1.08.22,1.63.28.49.05.99.04,1.49.02,1.44-.05,2.89-.11,4.33-.2.32-.02.64-.16.96-.21.51-.07,1.04-.05,1.54-.17.49-.12.96-.35,1.41-.58.35-.18.64-.47.99-.65.76-.39,1.34-.95,1.8-1.66.29-.44.56-.9.88-1.32.2-.26.49-.44.7-.7.33-.4.25-.91.29-1.39.04-.46.08-.93.03-1.38-.05-.47-.16-.95-.35-1.38-.29-.66-.63-1.29-1-1.9-.3-.5-.67-.96-1.02-1.44-.18-.25-.35-.51-.58-.71-.3-.26-.64-.49-.98-.7-.54-.32-1.08-.63-1.64-.92-.21-.11-.45-.16-.67-.22-.79-.2-1.6-.21-2.41-.19-.66.02-1.32-.08-1.98-.15-.23-.02-.49-.21-.67-.14-.23.09-.4-.02-.59-.01-.92.02-1.83.02-2.75.06-.29.01-.58.16-.87.22-.39.08-.79.1-1.17.19-.68.16-1.36.35-2.04.51-.52.12-1.04.23-1.55.35-.2.05-.38.15-.58.18-.36.07-.72.11-1.07.17-.26.04-.51.1-.77.16-.04,0-.09.02-.13.02-.54-.05-1.06.11-1.59.15-.9.06-1.8.03-2.67-.2-.63-.17-1.25-.43-1.86-.67-.18-.07-.31-.25-.48-.36-.72-.45-1.37-.97-1.97-1.56-.31-.3-.7-.52-1.06-.78-.8-.58-1.43-1.28-1.7-2.26-.05-.18-.16-.33-.22-.51-.43-1.29-.56-2.63-.34-3.95.16-.98.15-1.93-.06-2.85-.22-.96-.2-1.92-.27-2.88-.06-.91.19-1.81.49-2.68.18-.52.32-1.05.5-1.57.33-.94.64-1.88,1.24-2.71.3-.41.44-.93.69-1.38.25-.45.53-.89.86-1.28.71-.85,1.46-1.67,2.21-2.48.36-.39.76-.74,1.18-1.08.25-.2.56-.31.82-.49.52-.34,1.01-.72,1.55-1.02.48-.27,1.02-.44,1.51-.67.36-.17.7-.38,1.06-.57.27-.15.55-.29.82-.44.28-.15.56-.3.85-.45.41-.21.81-.43,1.22-.6.46-.19.93-.36,1.41-.5.27-.08.56-.09.85-.11.34-.03.68-.04,1.02-.06.48-.02.97-.05,1.45-.06.83-.02,1.65-.05,2.48-.05.49,0,.98.05,1.47.1.42.04.85.1,1.27.17.28.05.55.18.82.2.42.02.84-.03,1.25-.03.68,0,1.41-.14,2.03.05,1,.3,2.05.52,2.94,1.13.18.12.38.2.58.28.44.18.88.34,1.31.54.49.23.97.49,1.45.76.28.16.54.37.81.56.28.2.56.39.84.59.76.53,1.35,1.2,1.76,2.04.27.55.48,1.11.62,1.71.15.63.46,1.22.69,1.83.07.18.07.39.16.57.28.62.65,1.21.86,1.86.17.55.17,1.16-.17,1.71-.13.21-.25.44-.35.67-.2.48-.54.74-1.06.77-.46.03-.92.09-1.33-.2-.39-.27-.6-.64-.63-1.11,0-.11-.02-.22-.01-.33.07-.98-.22-1.93-.34-2.89-.06-.51-.29-1.01-.44-1.51-.1-.34-.2-.68-.31-1.02-.28-.84-.73-1.55-1.45-2.09-.38-.28-.69-.66-1.08-.92-.44-.3-.92-.55-1.41-.76-.58-.25-1.19-.44-1.8-.64-.27-.09-.54-.15-.82-.2-.56-.11-1.11-.24-1.67-.28-1-.07-2.01-.04-3.01-.11-.44-.03-.87-.21-1.31-.29-.28-.05-.57-.04-.85-.03-1.42.03-2.85.04-4.26.12-.61.04-1.23.2-1.81.38-.57.18-1.12.45-1.67.69,0,0-.02.02-.02.02-.58,0-1.05.31-1.53.57-.2.11-.4.2-.61.29-.47.21-.96.39-1.42.63-.51.26-1.02.53-1.48.86-.89.63-1.75,1.3-2.61,1.96-.15.12-.24.32-.38.47-.58.66-1.1,1.34-1.49,2.14-.32.65-.73,1.25-1.07,1.9-.21.41-.37.84-.55,1.26-.25.57-.51,1.15-.77,1.72-.23.52-.28,1.07-.28,1.63,0,.75-.05,1.51-.04,2.26,0,.3.09.6.13.91.03.16.07.32.08.49.04.87.1,1.74.1,2.61,0,.41-.13.82-.2,1.23-.02.11-.02.22-.02.33-.03.6.23,1.1.46,1.64.22.52.61.89.9,1.34.15.24.43.39.65.58.32.28.63.56.96.83.26.21.54.38.8.59.53.44,1.17.65,1.82.72.62.07,1.25,0,1.88-.03.36-.01.73-.03,1.09-.09.51-.08,1.01-.19,1.51-.3.42-.09.84-.18,1.25-.3.49-.14.97-.33,1.46-.45.76-.17,1.53-.29,2.3-.44.81-.16,1.62-.33,2.44-.46.25-.04.52.02.78.03.27.01.55.02.82.04.43.02.86.07,1.28.05.44-.02.83.1,1.23.24.23.08.5.1.75.11.35.02.71,0,1.06,0,.59.02,1.18.03,1.77.08.36.03.73.09,1.08.2.4.12.77.32,1.15.48.34.14.68.27,1,.44.5.27.98.6,1.48.87.5.27.88.7,1.17,1.15.41.65,1.01,1.2,1.16,2.02.11.63.52,1.11.92,1.6.72.88,1.03,1.89.58,3.03-.06.14-.07.3-.07.45,0,.48.07.98-.01,1.45-.1.59-.32,1.16-.49,1.73-.06.19-.15.36-.2.55-.2.69-.71,1.2-1.05,1.8-.25.43-.56.82-.67,1.35-.09.42-.42.79-.69,1.15-.2.26-.46.48-.71.68-.14.11-.32.16-.49.21-.43.12-.75.38-1.07.67-.27.25-.56.54-.9.64-.91.29-1.86.49-2.79.73-.33.08-.65.19-.98.25-.54.1-1.08.17-1.8.28Z"/>
        <path class="cls-1" d="M107.62,4.96c.15-.53.3-1.06.45-1.58.09-.32.24-.63.3-.96.13-.8.59-1.33,1.27-1.68.41-.21.8-.49,1.31-.49,1.23,0,2.2,1.27,1.84,2.45-.12.39-.47.55-.73.81-.48.49-.73,1.07-.7,1.76.04,1.03-.58,1.84-1.57,2.01-1.06.18-1.74-.33-1.97-1.46-.06-.27-.08-.54-.12-.82-.03,0-.05-.02-.08-.03Z"/>
      </g>
      <g>
        <path class="cls-1" d="M138,227.69c-.22-.02-.44-.07-.65-.15-1.16-.49-2.31-1.04-3.62-.94-.08,0-.17-.02-.25-.05-1.01-.43-2-.89-3.02-1.27-.55-.2-1.15-.26-1.73-.37-.25-.05-.51-.07-.75-.16-1.06-.37-2.12-.74-3.28-.68-.77.04-1.55,0-2.33.05-1.12.08-2.24.23-3.35.34-.77.07-1.54.11-2.31.18-.99.09-1.98.24-2.98.3-.49.03-1-.19-1.47-.12-1.18.19-2.4-.12-3.56.28-.14.05-.31.02-.46.04-.71.1-1.42.2-2.12.31-.75.12-1.5.27-2.26.4-.89.16-1.78.3-2.67.47-.35.07-.69.2-1.04.28-.34.08-.71.07-1.03.19-1.11.4-2.22.76-3.41.84-1.2.09-2.41.17-3.6.35-1.79.27-3.55.29-5.32-.09-.66-.14-1.27-.72-2.01-.24-.03.02-.12-.05-.18-.08-.31-.15-.61-.34-.93-.46-1.06-.39-2.15-.7-3.18-1.13-.86-.36-1.69-.81-2.48-1.31-.65-.41-1.31-.86-1.36-1.78-.06-1.22-.19-2.44-.18-3.65,0-2.54.58-5.02,1.03-7.51.32-1.79.56-3.6.84-5.4.09-.59.2-1.18.28-1.77.08-.6.2-1.21.18-1.82-.02-.82-.21-1.65-.21-2.47,0-.59.29-1.18.26-1.76-.03-.68,0-1.33.08-2.01.14-1.17.11-2.36.14-3.54,0-.31-.04-.63-.03-.95.02-.97.08-1.93.08-2.9,0-.95-.12-1.9-.03-2.84.1-1.07.11-2.09-.33-3.1-.18-.43-.24-.92-.44-1.33-.18-.37-.47-.68-.73-1-.15-.18-.33-.32-.51-.47-.16-.14-.33-.27-.49-.41-.45-.39-.9-.83-1.53-.79-.94.07-1.84.3-2.56.96-.14.13-.29.24-.44.34-1.22.74-2.46,1.47-3.43,2.54-.6.66-1.23,1.21-2.05,1.56-.28.12-.51.4-.7.65-.71.97-1.37,1.98-2.09,2.94-.57.75-1.12,1.49-1.45,2.38-.11.3-.23.62-.44.84-.75.81-1.26,1.76-1.76,2.73-.46.89-.93,1.78-1.4,2.67-.55,1.03-1.09,2.06-1.68,3.07-.37.64-.83,1.22-1.23,1.85-.34.52-.66,1.05-.96,1.6-.27.49-.46,1.02-.75,1.49-.45.73-.97,1.43-1.44,2.15-.68,1.07-1.41,2.08-2.61,2.62-.58.26-.92.71-1.13,1.3-.13.38-.27.81-.54,1.08-.76.74-1.59,1.41-2.42,2.09-.25.21-.55.39-.86.5-.4.14-.76.28-.94.71-.23.58-.67.84-1.29.89-1.36.1-2.71.25-4.06.38-.39.04-.78.08-1.18.1-1.55.08-2.86-.77-4.29-1.15-1.03-.28-1.98-.86-2.98-1.28-.19-.08-.48-.13-.64-.04-.36.19-.45.01-.64-.24-.22-.28-.54-.51-.85-.7-.31-.19-.68-.29-1-.47-.31-.17-.62-.28-.92-.08-.46.31-.92.72-.88,1.29.05.68.27,1.39.99,1.73.89.42,1.84.72,2.7,1.2,1.29.73,2.75.7,4.12,1.08.62.17,1.28.21,1.92.29.71.09,1.41.21,2.12.26.99.07,1.99.09,3.02.14-.04.16-.04.24-.08.29-.72.9-1.72,1.44-2.69,2.01-.43.25-.94.35-1.41.54-.85.33-1.66.79-2.54.99-1.28.29-2.54.78-3.9.59-.1-.01-.21,0-.31,0-1.7.15-3.38.44-5.1.35-1.74-.1-3.49.04-5.21-.12-1.54-.15-3.13-.18-4.56-.88-1.18-.57-2.39-1.1-3.51-1.78-.95-.59-1.79-1.37-2.67-2.07-1.3-1.03-2.22-2.29-2.62-3.94-.24-.98-.64-1.92-1.06-2.84-.27-.6-.61-1.13-.73-1.81-.26-1.48-.64-2.95-.97-4.42-.1-.44-.05-.84.18-1.26.2-.38.28-.83.39-1.26.13-.49.17-1,.34-1.48.51-1.41,1-2.83,1.1-4.34.01-.2.06-.41.15-.58.41-.82.81-1.63,1.1-2.51.28-.85.69-1.7,1.51-2.25.34-.23.6-.6.93-.85.32-.25.67-.48,1.05-.64.47-.2.94-.35,1.26-.82.2-.29.56-.48.87-.68.51-.34,1.11-.58,1.54-1,.89-.86,2.04-1.18,3.12-1.64.81-.34,1.79-.08,2.54-.63.66-.49,1.42-.65,2.19-.68.78-.03,1.45-.22,2.11-.63.45-.28.96-.52,1.47-.65,1.17-.28,2.37-.11,3.56-.08.51.01,1.01-.07,1.52-.11.37-.03.79-.2,1.09-.08.81.34,1.68.33,2.51.53.31.08.65.04.97.09.18.03.34.12.45.16.19.17.33.36.52.46.46.23.98.37,1.41.64,1.21.75,2.43,1.49,3.57,2.34.75.55,1.48,1.2,1.45,2.3,0,.11.14.22.22.33.33.38.7.73.65,1.32-.02.21.17.46.3.66.52.74,1.24.86,2.09.72.79-.13,1.2-.4,1.31-1.18.06-.43-.01-.92-.17-1.34-.21-.58-.47-1.19-.87-1.65-.29-.33-.53-.63-.63-1.05-.02-.06-.05-.13-.09-.18-.77-.87-1.47-1.83-2.35-2.58-.94-.81-2.05-1.44-3.1-2.12-.47-.3-.95-.59-1.46-.82-.54-.25-1.14-.39-1.68-.63-1.12-.5-2.27-.93-3.5-1.03-.95-.08-1.9-.2-2.86-.21-.73-.01-1.47.1-2.2.19-.41.05-.82.17-1.23.24-.61.11-1.23.2-1.84.3-.72.12-1.43.26-2.15.39-.32.06-.64.1-.95.16-.45.09-.89.28-1.34.3-.94.04-1.67.45-2.37,1.02-.28.23-.63.4-.98.49-.75.18-1.58.07-2.27.54-.34.23-.69.45-1.05.66-.48.27-.98.5-1.44.79-.68.41-1.36.82-2,1.29-.52.38-1.05.77-1.43,1.27-.66.88-1.31,1.72-2.33,2.23-.32.16-.52.6-.75.93-.23.33-.43.68-.63,1.03-.19.32-.38.64-.55.97-.12.23-.16.5-.31.7-1.23,1.55-1.8,3.43-2.52,5.22-.67,1.67-.87,3.48-1.03,5.27-.15,1.73.17,3.42.55,5.09.28,1.25.7,2.47,1.07,3.7.26.87.47,1.76.8,2.61.35.88.65,1.86,1.25,2.55,1.14,1.34,2.44,2.54,3.75,3.73.65.59,1.48.98,2.17,1.53,1.71,1.38,3.73,2.01,5.84,2.32,1.62.23,3.27.27,4.91.34,1.02.05,2.05.03,3.07-.03,1.13-.06,2.26-.17,3.38-.3.75-.09,1.49-.35,2.24-.37,1.7-.05,3.38-.24,5-.73,1.16-.36,2.29-.84,3.44-1.23.79-.26,1.56-.53,2.18-1.12.14-.13.35-.18.52-.28.2-.12.41-.23.59-.37.5-.39.99-.8,1.48-1.2.35-.29.79-.51,1.05-.87.53-.73.99-1.47,2-1.56.24-.02.47-.05.71-.08,1.47-.22,2.94-.45,4.35-.66,0,.01.01.02.02.03.09-.02.19-.03.29-.03.12,0,.24,0,.36-.02.14-.14.4-.08.58-.14.14-.04.3-.03.45-.04,1.04-.11,2.07-.22,3.11-.32,1.13-.11,2.26-.21,3.39-.29,1.47-.11,2.95-.31,4.43-.28,1.79.04,3.58.23,5.35.44,1.48.17,2.96.4,4.34,1.03.84.38.95.53.9,1.47-.05.8-.13,1.62-.03,2.41.11.95.36,1.9.62,2.83.22.79.43,1.63,1.1,2.19.29.24.73.31,1.09.49.72.35,1.4.78,2.14,1.07.8.31,1.57.77,2.47.78,1.27.01,2.52.25,3.76.51.31.06.61.16.92.25.81.23,1.63.45,2.44.68,1,.29,1.99.02,2.98-.06,1.2-.1,2.39-.2,3.59-.35.91-.11,1.85-.17,2.71-.45,1.49-.49,3.02-.77,4.54-1.06.73-.14,1.49-.09,2.23-.19,1.08-.14,2.14-.33,3.22-.51.17-.03.33-.07.5-.1.62-.1,1.23-.25,1.86-.3,1.11-.08,2.23-.07,3.35-.15,1.57-.11,3.14-.26,4.7-.4.98-.09,1.96-.19,2.94-.28.4-.03.82-.08,1.21-.04,1.2.15,2.41.28,3.58.54,1.45.32,2.88.77,4.31,1.16.83.22,1.66.44,2.49.67.67.18,1.27.43,1.7,1.07.74,1.11,1.75,1.93,3.2,1.66.6-.11,1.31-.33,1.7-.76.79-.86.32-2.86-1.19-2.99ZM76.11,199.47c.26,1,.13,1.91-.33,2.77-.46.87-.46,1.8-.5,2.73-.04,1.02-.08,2.03-.16,3.05-.09,1.21-.2,2.42-.34,3.62-.09.78-.27,1.54-.41,2.31,0,.03-.04.06-.05.09-.17.88-.5,1.07-1.39.78-.21-.07-.43-.14-.62-.24-1.23-.63-2.58-.52-3.9-.6-.32-.02-.63-.09-.95-.09-1.76-.03-3.53-.11-5.29-.04-1.45.06-2.88.34-4.33.5-1.55.17-3.11.27-4.66.46-.6.08-1.18.32-1.77.49-.07.02-.14.07-.19.05-.86-.31-1.7.04-2.54.08-.57.03-1.13.08-1.8.14.17-.14.26-.21.35-.28.56-.46,1.11-.91,1.67-1.37.33-.27.68-.52.99-.81,1.35-1.27,2.73-2.51,4-3.85.89-.94,1.69-1.98,2.43-3.04.53-.75.89-1.62,1.33-2.43.08-.15.19-.29.31-.4.56-.46.85-1.07,1.07-1.74.14-.42.33-.82.53-1.22.67-1.34,1.21-2.76,2.13-3.97.33-.44.62-.93.85-1.43.31-.67.88-1.1,1.33-1.65.54-.65.88-1.46,1.34-2.18.34-.54.72-1.06,1.08-1.59.23-.34.49-.66.68-1.02.46-.88,1.25-1.38,2.03-1.94.83-.59,1.52-1.38,2.24-2.11.74-.75,1.36-1.62,2.31-2.14.22-.12.38-.2.63.03.17.16.49.17.75.25.02-.04.05-.08.07-.11.17.33.34.66.52.98.07.13.15.28.26.37.92.73.98,1.73.87,2.78-.15,1.43-.27,2.86-.14,4.31.13,1.44.15,2.9.17,4.35,0,.87-.17,1.71-.44,2.55-.16.48-.26,1.07-.14,1.54Z"/>
        <path class="cls-1" d="M374.6,221.57c-.18-.47-.49-.91-.6-1.39-.22-.93-.8-1.49-1.62-1.89-.74-.36-1.48-.75-2.19-1.18-.69-.41-1.3-.98-2.02-1.32-.89-.42-1.86-.66-2.8-.97-.26-.09-.53-.14-.8-.19-1.39-.23-2.77-.04-4.14.23-1.08.2-2.17.41-3.22.72-.98.29-1.92.72-2.87,1.06-.61.22-.92.07-1.11-.53-.17-.57-.28-1.15-.46-1.71-.2-.64-.47-1.26-.68-1.89-.15-.46-.28-.94-.36-1.42-.01-.1.06-.22.14-.33.1-.38.46-.58,1.06-.64.34-.04.68-.14,1.02-.21.59-.12,1.18-.34,1.76-.32.71.03,1.26-.26,1.77-.62.27-.2.54-.42.81-.63.33-.29.65-.59.99-.86.4-.31.81-.73,1.27-.83.1-.02.21-.04.31-.07.01,0,.03-.01.04-.01.34-.1.64-.24.91-.42h0c.07-.06.13-.12.18-.18.44-.49.85-.97,1.23-1.49.01-.01.01-.02.02-.03.11-.17.22-.34.33-.51.01-.01.02-.03.03-.04.25-.39.49-.78.67-1.2.52-1.17.88-2.42,1.31-3.63.27-.77.73-1.48.7-2.36-.02-.39.15-.8.26-1.2.24-.83.64-1.65.68-2.48.07-1.13-.1-2.27-.24-3.4-.07-.62-.34-1.2-.18-1.85.04-.16-.09-.37-.16-.54-.2-.54-.4-1.07-.63-1.59-.07-.18-.22-.32-.34-.47-.13-.16-.29-.3-.38-.48-.32-.6-.65-1.2-.92-1.82-.67-1.57-1.76-2.85-3.05-3.86-1.37-1.08-2.95-1.93-4.7-2.34-1.12-.26-2.26-.41-3.36-.74-1.56-.45-3.14-.63-4.75-.43-.54.07-1.1.1-1.62.24-1.19.31-2.33.79-3.63.69-2.13-.15-3.88.94-5.61,2-.35.21-.63.57-1,.74-1.32.63-2.44,1.49-3.47,2.53-1.27,1.28-2.3,2.73-3.36,4.18-.7.97-1.17,2.06-1.65,3.14-.02.05-.04.1-.06.15-.23.54-.4,1.12-.7,1.61-.1.16-.18.31-.25.47t0,.02c-.08.19-.16.38-.23.58-.01.02-.01.03-.02.05-.01.06-.03.11-.05.17-.06.22-.12.44-.17.66t-.01.02c-.02.11-.04.22-.05.34-.12.98-.39,1.91-.76,2.81-.02.06-.04.11-.05.16-.4,1.14-.99,2.23-1.3,3.39-.25.94-.54,1.65-1.56,1.98-.35.12-.53.33-.57.62h0c0,.19.04.38.13.58.18.39.26.76.24,1.13h0c.01.22-.02.43-.12.64-.34.74-.63,1.5-.99,2.23-.03.06-.06.13-.09.19-.61,1.63-1.19,3.26-1.79,4.89,0,.01-.01.02-.01.03-.08.25-.16.5-.24.74-.42,1.25-.83,2.48-1.58,3.58-.21.31-.42.63-.61.95-.08.12-.15.25-.21.37-.06.12-.12.23-.18.35-.16.36-.29.73-.37,1.13-.07.35-.31.67-.51.97-.42.61-.85,1.19-1.29,1.76-.32.42-.64.85-1.01,1.21-.71.7-1.55,1.17-2.47,1.46-.39.12-.79.21-1.21.27-.62.1-1.31.07-1.9-.1-1.37-.39-2.73-.88-3.9-1.71-.72-.5-1.37-1.1-1.98-1.73-.31-.32-.45-.82-.7-1.22-.61-.96-.97-2.02-1.27-3.11-.15-.56-.19-1.18-.17-1.76.07-1.33.42-1.62,1.73-1.67.46-.01.93-.02,1.38-.1,1.61-.28,3.11-.9,4.58-1.63,1.6-.8,3.22-1.6,4.9-2.19,1.29-.46,2.62-.99,4.07-.84.53.05.98-.28,1.23-.77.32-.6.21-1.14-.2-1.67-.45-.6-1.09-.59-1.7-.46-1.12.22-2.22.53-3.32.81-2.41.61-4.71,1.49-6.77,2.85-1.67,1.11-3.54,1.01-5.45,1.35.14-1.22-.18-2.37.24-3.5.14-.38.23-.77.34-1.15.33-1.1.44-2.25.31-3.37-.16-1.45.17-2.82.36-4.22.18-1.25.42-2.48.63-3.72.07-.46.14-.92.25-1.36.35-1.46.82-2.89,1.06-4.37.23-1.49.28-3,.31-4.51.02-1.1-.07-2.2-.21-3.29-.08-.63-.29-1.26-.54-1.84-.41-.98-.82-1.96-1.38-2.86-.55-.86-3.1-1.32-4.01-.54-.28.24-.67.37-1.01.53-.43.2-.96.28-1.28.59-.74.71-1.39,1.53-2.06,2.32-.08.08-.1.22-.13.33-.23.88-.8,1.55-1.47,2.1-.91.73-1.68,1.58-2.37,2.5-.42.57-.83,1.15-1.26,1.7-.49.62-.99,1.21-1.19,2-.1.38-.27.78-.51,1.1-.65.84-1.36,1.62-2.03,2.44-.72.9-1.43,1.8-2.12,2.72-.36.47-.67.98-.97,1.49-.41.68-.79,1.38-1.19,2.07-.63,1.11-1.25,2.21-1.89,3.31-.3.52-.49,1.14-1.18,1.49-.04-.07-.06-.16-.12-.23-.85-1.05-1.8-2.04-2.55-3.17-.58-.89-.91-1.95-1.36-2.93l-1.17-2.58c-.15-.32-.28-.64-.47-.94-.61-1-1.28-1.96-1.84-2.98-.5-.91-.88-1.87-1.31-2.81-.09-.2-.16-.42-.28-.6-.72-1.06-1.41-2.12-2.17-3.15-.79-1.07-1.67-2.07-2.46-3.15-.72-.99-1.75-1.55-2.71-2.22-.74-.51-1.65-.78-2.18-1.61-.18-.28-.51-.51-.82-.67-.93-.48-1.93-.72-3-.75-1.24-.03-2.47-.21-3.73-.05-.6.08-1.22.02-1.84,0-.19-.01-.37-.18-.57-.2-1.33-.11-2.63.24-3.94.43-.08.01-.16.04-.23.09-1.1.69-2.2,1.39-3.31,2.1-.28.18-.54.29-.85.03-.24-.19-.5-.42-.78-.48-1.22-.24-2.37-.67-3.52-1.13-.69-.28-1.45-.41-2.2-.51-1.23-.15-2.47-.01-3.68.24-.54.1-1.08.5-1.59.44-.95-.11-1.89.15-2.86-.02-.69-.12-1.49.23-2.22.44-.42.11-.79.47-1.2.5-.71.05-1.23.34-1.42.97-.16.51-.48.73-.89.94-.24.12-.42.33-.64.49-1,.7-1.72,1.66-2.39,2.66-.33.48-.54,1.04-.82,1.54-.37.67-.79,1.31-1.15,1.97-.43.82-.82,1.65-1.23,2.47-.12.21-.25.41-.42.57-.52.49-.68.93-.35,1.52.3.51.11.9-.1,1.33-.45.9-.96,1.78-1.35,2.71-.5,1.19-.91,2.42-1.37,3.63-.59,1.58-1.11,3.2-1.8,4.74-.61,1.34-.95,2.77-1.65,4.08-.47.87-.52,1.99-.66,3-.13.93-.44,1.75-1.07,2.43-.77.82-1.28,1.78-1.77,2.78-.29.58-.67,1.14-1.11,1.62-.31.35-.6.24-.69-.2-.11-.58-.2-1.18-.24-1.77-.07-.84-.05-1.69-.14-2.53-.05-.48-.31-.95-.38-1.43-.08-.64-.08-1.29-.1-1.94-.06-1.38-.11-2.76-.16-4.14-.01-.57.02-1.14,0-1.71-.02-.56-.09-1.11-.12-1.67-.05-.78.11-1.56-.33-2.32-.34-.6-.5-1.32-.63-2.01-.14-.74-.17-1.5-.21-2.25-.1-2-.03-4-.41-5.99-.11-.57-.1-1.18-.11-1.77,0-.58.1-1.16.05-1.73-.07-.66-.35-1.3-.36-1.96-.03-1.03.07-2.05-.23-3.06-.23-.81-.5-1.65-1.31-2.06-.83-.43-1.73-.74-2.61-1.1-.13-.05-.27-.1-.4-.1-.45.02-.91.07-1.37.1-2.02.15-3.49,1.08-4.39,2.93-.36.75-.87,1.43-1.33,2.13-.27.4-.61.74-.82,1.16-.39.78-.7,1.61-1.07,2.4-.17.35-.42.67-.59,1.02-.3.6-.57,1.22-.84,1.84-.43,1.03-.95,2.02-1.6,2.94-.38.55-.65,1.2-.89,1.84-.25.71-.55,1.36-1.05,1.95-.84,1-1.36,2.17-1.8,3.39-.43,1.23-.61,2.54-1.52,3.59-.58.66-.95,1.52-1.48,2.23-.56.74-1.21,1.41-1.81,2.12-.61.72-1.37,1.32-1.72,2.25-.44,1.13-1.07,2.15-1.86,3.08-.49.57-1.05,1.12-1.44,1.76-.54.9-1.25,1.63-2.12,2.17-1.83,1.14-3.68,2.25-5.55,3.32-.94.53-1.94.94-2.92,1.37-.26.12-.56.13-.84.18-.24.05-.47.09-.7.13-1.71.31-3.41.66-5.12.9-1.01.14-2.05.15-3.06.1-.92-.04-1.83-.21-2.73-.39-.51-.11-.98-.4-1.5-.51-1.89-.4-3.8-.7-5.68-1.13-.91-.21-1.8-.59-2.67-.96-.65-.28-1.35-.54-1.71-1.26-.11-.22-.15-.39.06-.56.87-.7,1.13-1.7,1.27-2.72.09-.66,0-1.35.01-2.03,0-1.11-.29-2.15-.62-3.2-.32-1.02-.28-2.05.3-3,.2-.32.47-.61.67-.93.59-.93,1.18-1.84,2.12-2.49.66-.47,1.37-.65,2.11-.59,1.26.1,2.52.31,3.78.48.08,0,.18.06.25.03.73-.34,1.44-.16,2.2-.04,1,.16,1.9.39,2.67,1.12.38.37.88.65,1.37.85.82.34,1.67.57,2.5.88.96.37,1.91.77,2.87,1.16.27.11.53.23.81.33.35.13.7.26,1.07.34,1.17.24,2.35.5,3.53.67.93.13,1.91.32,2.82.18,1.23-.19,2.38-.81,3.41-1.5,1.27-.86,2.47-1.82,3.63-2.83.93-.81,1.73-1.74,2.28-2.88.41-.84.88-1.65,1.31-2.48.06-.11.07-.26.08-.39.08-1.19.21-2.37.24-3.56.03-.85-.08-1.7-.13-2.55-.03-.44,0-.89-.14-1.29-.22-.68-.57-1.3-.83-1.96-.59-1.48-1.3-2.9-2.32-4.13-.45-.54-.93-1.06-1.45-1.52-.7-.64-1.43-1.25-2.2-1.79-.63-.44-1.34-.75-2.01-1.14-.62-.37-1.21-.82-1.85-1.17-.57-.3-1.2-.51-1.8-.79-.51-.23-.97-.58-1.5-.73-.87-.24-1.76-.38-2.64-.51-.81-.12-1.65-.28-2.46-.21-1.17.1-2.31-.01-3.47-.11-.65-.06-1.32-.43-1.94-.09-.63.35-1.21.19-1.81.07-.32-.06-.63-.23-.94-.23-1-.03-1.98-.1-2.97.24-1.29.42-2.62.67-3.82,1.35-.71.4-1.42.81-2.17,1.08-1.12.4-1.97,1.04-2.63,2.04-.53.81-1.23,1.53-1.86,2.28-.31.38-.62.77-.97,1.12-.95.93-1.81,1.93-2.37,3.14-.52,1.11-.99,2.23-1.44,3.36-.54,1.34-1.09,2.67-1.55,4.03-.43,1.27-.76,2.58-1.12,3.87-.19.69-.38,1.38-.54,2.07-.09.34-.19.7-.19,1.05,0,1.09.04,2.18.07,3.26,0,.13,0,.25.01.37.08.86.1,1.73.24,2.58.19,1.08.44,2.16.73,3.21.19.68.59,1.32.74,2,.23.97.68,1.79,1.21,2.61.32.5.61,1.03.92,1.57-1.02.36-1.85.16-2.65-.21-.94-.45-1.89-.89-2.82-1.38-.63-.33-1.2-.78-1.84-1.1-.69-.34-1.43-.55-2.17-.04-.08.06-.19.13-.27.11-.66-.15-1.29-.09-1.96.01-.48.07-.83.25-1.14.58-.16.17-.34.31-.52.45-.71.52-1.6.49-2.37.53-1.16.05-2.18.31-3.17.89-.5.3-1.07.51-1.63.7-.33.11-.7.07-1.05.14-.89.2-1.77.47-2.66.65-1.01.19-2.03.3-3.05.48-.27.04-.52.2-.78.32-.45.21-.88.45-1.35.62-.39.13-.82.17-1.23.26-.82.19-1.64.39-2.45.57-.08.02-.16-.05-.24-.04-.49.03-.98.05-1.47.11-.26.03-.51.17-.77.2-1.12.11-2.25.16-3.35-.13-.58-.16-1.24-.24-1.69-.58-.39-.3-.77-.4-1.19-.54-.21-.08-.43-.36-.5-.59-.16-.53-.17-1.11-.35-1.64-.2-.61-.1-1.17.11-1.74.08-.22.27-.41.31-.63.17-.93.39-1.86.41-2.79.02-.92.04-1.8.55-2.6.12-.19.26-.36.35-.56.5-1.08,1.01-2.16,1.48-3.26.42-1,.74-2.05,1.2-3.04.48-1.04,1.05-2.04,1.65-3.02.6-.99,1.28-1.92,1.93-2.87.73-1.09,1.35-2.25,1.38-3.58,0-.9.38-1.65.73-2.4.27-.61.47-1.14.22-1.81-.16-.42-.17-.89-.24-1.33-.03-.23-.06-.48-.03-.71.02-.29.1-.57.15-.85.07-.49.26-.99.19-1.45-.09-.6-.39-1.17-.59-1.76-.15-.43-.25-.88-.44-1.3-.52-1.11-.74-2.32-1.07-3.49-.24-.81-.56-1.68-1.1-2.3-.73-.83-1.76-1.33-2.85-1.65-.13-.03-.27,0-.4-.02-.12-.01-.25-.01-.34-.06-.87-.54-1.83-.72-2.81-.86-1.24-.17-2.47-.41-3.71-.59-.99-.14-1.99-.25-2.99-.34-1.03-.1-2.07-.16-3.1-.25-.58-.04-1.16-.15-1.75-.14-2.38.06-4.78-.1-7.16.3-1.32.22-2.66.3-3.98.5-.9.12-1.78.41-2.69.51-.92.09-1.86.89-1.84,1.81.01.29.11.72.32.85.41.25.93.34,1.41.48.06,0,.14-.16.24-.22.16-.13.32-.31.51-.34.89-.12,1.79-.17,2.69-.28,1.37-.18,2.75-.37,4.12-.55,1.5-.2,2.99-.48,4.49-.55,1.51-.08,3.03.05,4.55.09.15.01.29,0,.44,0,.92-.03,1.85-.14,2.77-.07s1.82.32,2.73.49c1.21.22,2.41.41,3.6.67.69.14,1.39.33,1.89.92.76.89,1.56,1.74,2.32,2.63.96,1.15,1.43,2.55,1.56,3.97.14,1.6.03,3.23-.1,4.83-.09,1.22-.32,2.42-.58,3.61-.38,1.77-.9,3.5-1.75,5.1-.94,1.78-1.94,3.52-2.83,5.32-.77,1.55-1.47,3.14-2.12,4.75-.4,1.02-.64,2.11-.95,3.16-.33,1.13-.68,2.25-.97,3.39-.15.57-.11,1.19-.3,1.74-.4,1.14-.67,2.27-.39,3.47.1.44.19.91.42,1.29.31.51.76.94,1.13,1.42.26.33.42.76.73,1.01.47.38,1.02.69,1.69.71.38.02.77.15,1.13.28,1.2.42,2.4.78,3.68.5.71-.16,1.4-.45,2.11-.5.89-.07,1.73-.56,2.65-.37.04.01.1-.05.15-.05.91-.05,1.79-.57,2.73-.13.08.03.2-.02.29-.04.75-.24,1.49-.51,2.25-.72.44-.13.9-.14,1.34-.27,1.05-.31,2.09-.67,3.14-.99.61-.18,1.25-.29,1.85-.49,1.1-.38,2.15-.85,3.26-1.18.72-.22,1.55-.14,2.24-.42,1.21-.5,2.61-.59,3.63-1.53.06-.05.16-.08.23-.07.55.01,1.09.05,1.63.07,1.27.06,2.34.68,3.4,1.28.93.53,1.82,1.07,2.89,1.33,1.18.28,2.25.24,3.31-.35.35-.2.76-.32,1.1-.54.44-.28.71-.09,1.01.24.62.68,1.31,1.31,2.21,1.62.68.23,1.37.46,2.08.65,1.06.28,2.14.54,3.22.78,1.13.25,2.27.44,3.4.67,1.23.26,2.46.6,3.71.77,1.42.18,2.85.26,4.28.28.68.01,1.41.03,2.04-.44.35-.26.8-.46,1.23-.54,1.47-.29,2.96-.49,4.42-.77.35-.07.66-.33,1-.47.62-.24,1.28-.39,1.88-.68,1.35-.64,2.65-1.39,4.01-2,1.41-.63,2.67-1.49,3.77-2.54,1.08-1.03,2.04-2.21,2.98-3.38.42-.51.64-1.19.99-1.76.59-.98,1.34-1.75,2.47-2.17.88-.33,1.7-.89,1.72-2.01,0-.51.3-.84.54-1.23.46-.77,1.13-1.47,1.14-2.41.01-.69.37-1.12.75-1.59.05-.06.09-.15.12-.22.45-.97.88-1.95,1.36-2.9.44-.85.93-1.67,1.42-2.49.65-1.09,1.34-2.16,1.99-3.25.32-.53.62-1.07.46-1.74-.05-.19-.02-.51.1-.63,1.07-1.03,1.32-2.52,2.09-3.72.28-.44.46-.98.84-1.36,1-.98,1.33-2.19,1.29-3.55-.01-.16.04-.37.15-.47.48-.44.99-.87,1.5-1.27.6-.46,1.24-.71,1.99-.34.12.06.28.1.4.07.55-.11.95.12,1.23.55.37.58.71,1.18,1.02,1.79.24.48.55.98.61,1.5.15,1.15.16,2.31.24,3.47.01.24.14.48.17.73.08.46.13.92.18,1.39.06.54.09,1.08.16,1.61.06.47.21.93.23,1.4.05,1.1-.03,2.22.07,3.31.15,1.66.43,3.3.61,4.96.08.7.07,1.41.09,2.12,0,.36-.06.73-.06,1.1,0,.3.07.6.07.9.01,1.25.01,2.5.02,3.75.01.65,0,1.31.04,1.97.12,1.91.21,3.82.4,5.73.12,1.1.38,2.2.91,3.2.21.38.42.76.68,1.11.47.63,1.12.88,1.83.49.84-.45,1.76-.81,2.26-1.72.27-.51.5-1.07.88-1.48.57-.61.97-1.28,1.16-2.07.04-.15-.07-.33-.11-.48.08-.1.21-.24.31-.4.21-.34.36-.76.64-1.04,1.12-1.15,1.67-2.55,1.95-4.1.15-.83.37-1.66.65-2.45.28-.78.7-1.5.99-2.27.61-1.63,1.18-3.28,1.77-4.92.24-.69.51-1.38.74-2.07.39-1.22.74-2.45,1.15-3.66.25-.73.61-1.42.88-2.14.11-.28.04-.67.42-.5.1-.37.12-.78.31-1.06.53-.79,1.05-1.59,1.4-2.49.1-.27.17-.56.31-.8.83-1.35,1.62-2.7,2.52-3.99.55-.77,1.24-1.45,1.92-2.12.61-.6,1.28-1.12,2.12-1.44.63-.23,1.18-.59,1.88-.5.09.02.2-.05.29-.08.88-.3,1.74-.66,2.64-.86,1.31-.28,2.65-.09,3.9.25,1,.28,1.96.66,3.02.61.12,0,.24.09.36.13,0,.06.03.11.05.17-.5.26-.98.57-1.5.77-1.04.41-1.84,1.07-2.46,2-.38.57-.63,1.24-1.26,1.63-.59.37-.88.93-.87,1.64,0,.1-.09.21-.15.3-.39.65-.86,1.27-1.17,1.95-.52,1.1-.84,2.29-1.4,3.36-1.13,2.12-2.41,4.16-3.26,6.43-.66,1.74-1.34,3.48-1.98,5.23-.27.74-.4,1.52-.68,2.26-.43,1.12-.91,2.23-1.41,3.31-.46.98-.8,2.76-1.51,3.61-.46.57-.82,1.25-1.13,1.92-.3.64-.48,1.35-.7,2.03-.35,1.11-.3,2.61,1.16,3.44.49.29,1.01.53,1.53.76.28.12.58.26.88.27.7.02,1.41-.01,2.11-.06.67-.03,1.35-.21,2.01-.14,1.5.16,2.93-.31,4.39-.44,1.78-.17,3.54-.54,5.32-.82.63-.1,1.27-.14,1.9-.26,1.27-.23,2.53-.52,3.84-.39.54.05,1.09.06,1.63,0,1.28-.13,2.57-.28,3.84-.5.83-.15,1.64-.43,2.44-.68.56-.17,1.12-.37,1.67-.57.82-.29,1.7-.48,2.46-.89,1.03-.56,2.03-1.22,2.97-1.94,1.52-1.16,3-3.13,4.45-4.38.53-.46.9-1.09,1.34-1.66.14-.18.2-.47.37-.58.69-.44.95-1.11,1.05-1.85.11-.8.14-1.6.2-2.4.07-.8-.09-1.63.35-2.39.15-.25.23-.59.24-.89.02-1.24-.27-2.38-.92-3.47-.33-.54-.48-1.22-.64-1.85-.33-1.23-.48-2.52-.93-3.7-.49-1.29-1.14-2.54-1.9-3.69-.68-1.04-1.56-1.95-2.41-2.86-.39-.42-.91-.73-1.4-1.05-.99-.65-1.98-1.3-3.01-1.88-.64-.36-1.36-.56-2.01-.88-1.27-.64-2.61-1-3.99-1.26-.35-.06-.69-.18-1.17-.31.76-.31,1.37-.64,2.03-.81.71-.19,1.41-.32,2.03-.76.25-.17.63-.26.93-.23.57.06,1.13.23,1.7.33.21.04.5.08.64-.02.35-.27.74-.26,1.12-.21.52.06,1.04.25,1.56.28,1.18.05,2.14.68,3.07,1.26,1.05.65,2,1.48,2.95,2.28,1.56,1.29,2.83,2.85,3.95,4.52.62.91,1.05,1.95,1.6,2.9.64,1.1,1.31,2.18,1.96,3.27.78,1.3,1.58,2.59,2.31,3.91.81,1.45,1.61,2.92,2.31,4.43.82,1.74,1.94,3.26,3.13,4.74.52.64.58.89.22,1.59-.3.57-.52,1.17-.84,1.72-.38.65-.7,1.37-1.39,1.79-.51.3-.99.65-1.5.95-.72.42-1.41.92-2.18,1.18-.49.16-.99.26-1.43.57-.84.6-1.75,1.1-2.39,1.96-.35.45-.78.88-1.27,1.17-.56.33-.99.88-1.69.99-.33.05-.64.27-.94.44-.32.19-.59.53-.92.6-1.26.24-2.39.8-3.55,1.28-.98.4-1.94.84-2.94,1.19-1.14.39-2.3.69-3.45,1.06-.36.12-.69.38-1.05.48-1.27.34-2.57.58-3.83.96-1.41.44-2.79.4-4.22.08-.73-.17-1.51-.31-2.3.09-1.39.71-1.64,2.54-.37,3.22.51.27,1.18.38,1.76.33.77-.06,1.53-.41,2.31-.54.73-.12,1.5-.07,2.24-.19.51-.08.98-.32,1.48-.46,1.1-.3,2.23-.51,3.3-.88,1.45-.49,2.85-1.13,4.3-1.66.74-.27,1.54-.37,2.27-.67,1.24-.52,2.44-1.14,3.66-1.69.2-.1.45-.1.67-.14.79-.15,1.62-.17,2.18-.88.11-.13.3-.25.47-.28,1.23-.2,2.13-1,3.03-1.73.68-.55,1.23-1.26,1.87-1.87.72-.69,1.51-1.29,2.56-1.45.38-.06.74-.32,1.06-.55.91-.64,1.8-1.32,2.69-1.99.34-.25.71-.47.98-.78.7-.83,1.34-1.7,2.03-2.59.07.04.2.11.33.2.69.47,1.34,1.06,2.1,1.4.77.36,1.45.78,2.07,1.36.29.27.63.57.99.68,1.78.54,3.56,1.1,5.37,1.5,1.27.29,2.6.36,3.92.48,1.32.13,2.65.19,3.97.3.12.01.3.19.32.32.09.5.17,1.01.18,1.52.02,1.39.06,2.75.62,4.08.75,1.8,1.37,3.68,3.05,4.88.75.53,1.54,1.03,2.38,1.41.88.38,1.82.65,2.75.86,1.05.24,2.15.54,3.2.46,1.36-.1,2.71-.48,3.98-1.07,1.19-.54,2.24-1.2,2.98-2.3.49-.72.95-1.47,1.5-2.14.52-.63.89-1.34,1.06-2.09.02-.07.03-.14.05-.21.05-.3.14-.57.27-.81.14-.41.32-.79.57-1.15.73-1.03,1.51-2,1.82-3.28.23-.96.52-1.92.81-2.87.21-.72.41-1.43.62-2.14.08-.29.17-.59.27-.87.08-.26.17-.52.3-.75.38-.69.57-1.39.6-2.15v-.02c-.01-.06-.01-.12-.02-.18-.03-.23-.04-.47-.02-.7.02-.15.04-.36.13-.41.08-.19.22-.36.47-.5.83-.46,1.06-1.38,1.32-2.24.27-.88.5-1.79.92-2.59.09-.18.18-.36.26-.55.05-.1.09-.2.13-.3.32-.78.54-1.59.75-2.4.1-.5.2-1,.35-1.48.02-.06.04-.12.06-.17.13-.54.25-1.1.51-1.57.21-.4.4-.8.59-1.19.16-.37.33-.72.53-1.06,0,0,.01-.02.01-.03.31-.59.65-1.16,1.08-1.68.67-.8,1.18-1.74,1.81-2.58.61-.81,1.26-1.59,1.92-2.35.45-.51.91-1.07,1.47-1.42,1.12-.72,2.4-1.21,3.48-1.98.91-.65,1.89-.61,2.88-.77,1.17-.2,2.4-.28,3.48-.71,1.15-.46,2.28-.69,3.47-.57,1.35.15,2.69.43,4.03.67.03.01.07.01.1.02.53.08,1.06.15,1.56.32.86.31,1.7.67,2.53,1.06.47.22.94.47,1.32.81,1.15,1.03,2.13,2.23,2.81,3.63.46.94,1.05,1.83,1.15,2.92.09,1.13.21,2.26.34,3.4.09.82.33,1.64.31,2.46-.02.59-.09,1.17-.17,1.76-.08.56-.16,1.11-.21,1.66-.08.8-.34,1.47-.89,2-.01.02-.03.03-.05.05-.04.04-.09.08-.13.12t-.01.01s-.04.03-.05.04c-.17.14-.35.27-.53.41l-.02.02c-.14.16-.26.34-.39.51-.47.63-.93,1.26-1.38,1.91-.46.67-.95,1.32-1.3,2.04-.03.07-.06.13-.09.19-.01.02-.01.04-.02.06-.16.38-.31.77-.54,1.09-.34.47-.83.83-1.25,1.25-.3.29-.64.36-1.04.21-.63-.23-1.54.05-1.88.64-.29.49-.71.77-1.19.97-.39.16-.8.29-1.2.43-.94.34-1.54.11-1.89-.59-.55-1.1-1.08-2.23-1.78-3.23-.77-1.1-1.84-1.97-3.07-2.53-.82-.38-1.71-.6-2.54-.94-1.2-.48-2.42-.82-3.69-.67-.71.08-1.41.34-2.08.6-.62.23-1.13.67-1.85.67-.2,0-.45.15-.62.33-.06.06-.1.13-.14.19-.1.2-.2.39-.3.59h0c-.28.58-.52,1.17-.71,1.77-.04.14-.09.28-.12.42-.04.2-.06.4-.07.62,0,.13,0,.25.02.37h0c.04.17.1.33.21.48.5.77,1.26,1.24,2.04,1.67.62.34,1.27.6,1.88.94.81.45,1.55,1.07,2.41,1.37,1,.36,2.09.49,3.16.64.68.09,1.41-.07,2.09.06,1.21.22,2.4.41,3.62.02.18-.05.55.04.63.18.39.62.77,1.27,1.01,1.96.44,1.21.79,2.46,1.17,3.69.08.26.15.49-.03.71-.03.04-.07.08-.13.12-.8.62-1.59,1.26-2.36,1.92-.71.61-1.44,1.21-2.07,1.9-.7.76-1.34,1.57-2.39,1.9-.34.12-.65.35-.97.54-.75.46-1.49.96-2.27,1.38-.91.49-1.71,1.08-2.25,1.98-.07.13-.2.27-.34.32-.52.17-1.05.3-1.57.47-1.07.33-2.15.65-3.2,1.03-.77.28-1.55.58-2.25,1-.57.34-1.1.67-1.76.75-.17.02-.33.12-.49.2-.81.46-1.62.91-2.43,1.38-.75.42-1.58.65-2.4.65-1.03,0-2.03.1-2.87.62-.93.57-1.82,1.15-2.9,1.38-.3.06-.61.11-.92.14-.58.05-1.18.01-1.73.16-2.02.52-4.02,1.11-6.02,1.68,0,.06,0,.13-.02.19-.41.13-.81.26-1.18.44-1.18.58-2.4.95-3.7.99-1.99.05-3.97-.02-5.95.22-1.99.26-3.99.41-5.99.54-1.17.08-2.36.01-3.54.03-.85.01-1.69.09-2.54.07-1.01-.01-2.02-.08-3.03-.15-.18-.01-.35-.15-.53-.22-.41-.16-.82-.36-1.25-.47-.48-.14-1.04-.09-1.48-.29-1.01-.47-2.06-.61-3.15-.6-.54,0-1.09-.02-1.63-.1-.5-.07-.98-.26-1.48-.35-1.34-.22-2.7-.31-3.92-1.01-.53-.31-1.1-.49-1.71-.13-.08.05-.24.04-.35,0-.39-.12-.77-.26-1.15-.42-1.18-.5-2.36-1.02-3.55-1.52-1.04-.43-2.08-.86-3.13-1.24-.62-.23-1.26-.42-1.91-.52-.67-.1-1.39.02-2.04-.13-1.46-.35-2.9-.83-4.35-1.22-1.05-.28-2.12-.53-3.19-.71-.92-.16-1.87-.18-2.8-.29-.8-.09-1.59-.2-2.38-.33-.56-.08-1.12-.16-1.67-.3-.71-.19-1.39-.55-2.1-.64-1.31-.16-2.64-.18-3.95-.24-.02,0-.03,0-.06-.01-.09,0-.18-.04-.27-.06-.09-.01-.19-.02-.28-.04-.04,0-.08-.02-.12-.04-.05-.02-.09-.04-.14-.06-.07-.02-.14-.04-.21-.06-.19-.05-.35-.15-.5-.26,0,0,0,0,0,0-.44-.13-.88-.26-1.34-.34-.11,0-.23-.02-.34-.02-.03,0-.06,0-.09-.01-.17.04-.37,0-.56-.02-1.12-.17-2.23-.36-3.35-.54-1.19-.2-2.35-.11-3.52.16-.94.21-1.9.38-2.86.44-.89.06-1.73.15-2.56.51-1.21.53-2.48.92-3.72,1.38-1.69.62-3.45.96-5.23,1.27-.89.16-1.77.45-2.64.73-.55.18-1.08.47-1.61.71-.98.43-2,.78-2.91,1.32-.94.55-1.87.91-2.98.88-.47-.02-1.08.04-1.41.32-.6.5-1.22.66-1.95.68-.5.02-.99.18-1.5.24-.74.08-1.49.14-2.24.18-1.04.06-2.09.14-3.1-.22-.14-.04-.3-.05-.45-.06-.88-.1-1.77-.14-2.64-.3-.86-.15-1.71-.4-2.56-.62-.68-.16-1.36-.28-2.01-.52-.74-.29-1.44-.7-2.17-1.03-.31-.15-.66-.21-.96-.37-.94-.5-1.8-1.18-2.93-1.25-.46-.02-.94-.04-1.37-.2-1.16-.44-2.32-.83-3.57-.95-.06-.01-.14-.02-.19-.05-.96-.58-2.03-.49-3.08-.54-.6-.03-1.2-.09-1.78-.21-.83-.16-1.65-.39-2.47-.61-.9-.24-1.8-.49-2.7-.74-.66-.19-1.32-.43-1.99-.57-.86-.17-1.73-.29-2.59-.4-1.19-.15-2.38-.3-3.57-.37-.61-.04-1.23.05-1.84.14-.59.08-1.19.21-1.78.38-.43.12-.83.34-1.24.53-.28.14-.56.29-.84.43-.51.24-1.01.47-1.52.71-.17.09-.32.2-.48.3-.3.18-.66.3-.87.56-.37.43-.61.96-.94,1.43-.93,1.34-.61,2.64.02,3.97.55,1.17,1.43,2.08,2.23,3.06.38.46.26,1.17-.29,1.35-.5.16-1.03.26-1.55.27-1.19,0-2.32-.36-3.48-.63-2.06-.47-4.15-.79-6.23-1.16-.3-.05-.66-.13-.92-.02-.46.22-.84.16-1.3-.01-.87-.35-1.77-.64-2.67-.87-1.02-.27-1.97-.75-3.07-.76-.8,0-1.63-.17-2.41-.38-1.24-.34-2.44-.87-3.7-1.18-1.31-.33-2.66-.54-4-.76-1.85-.3-3.72-.52-5.56-.86-2.1-.39-4.21-.58-6.34-.59-1.53-.02-3.07-.07-4.6-.13-.88-.04-1.75-.2-2.63-.17-1.15.03-2.33-.03-3.45.4-.31.12-.65.22-.98.21-1.31-.04-2.62-.11-3.93-.21-1.21-.1-1.89.59-2.07,1.48-.2,1.01.44,1.74,1.59,1.85.51.05,1.04-.06,1.56-.1.13,0,.28-.04.38,0,.03,0,.07-.01.1-.01.77,0,1.55-.07,2.32-.09.16-.07.34-.13.52-.16,1.04-.13,2.09-.21,3.14-.29.39-.02.78-.01,1.17,0,.07,0,.13-.02.2-.02,0,0,.02,0,.02,0,.47-.09.93-.24,1.41-.32.25-.04.5-.08.75-.09.09,0,.18,0,.27.01.33-.06.68-.05,1.03-.04.92.05,1.84.19,2.76.27.92.09,1.85.1,2.76.25,1.76.29,3.5.66,5.25.99.57.1,1.14.17,1.71.27.8.12,1.6.29,2.41.36.83.08,1.68-.03,2.49.1,1.6.27,3.18.65,4.77,1,.7.16,1.37.44,2.08.54,1.51.22,3.04.34,4.55.57.6.09,1.22.28,1.75.58.74.43,1.49.82,2.35.89.81.07,1.63,0,2.41.3.33.13.69.21,1.04.28.99.2,2.01.34,3,.58,1.69.41,3.37.86,5.14.76.81-.05,1.58-.18,2.23-.73.68-.58,1.37-1.17,1.6-2.06.4-1.59-.12-2.96-1.27-4.06-.78-.75-1.62-1.43-2.15-2.4-.25-.47-.27-.95-.07-1.41.06-.16.3-.35.45-.33.49.04.71-.29,1-.58.21-.2.49-.35.76-.46.34-.15.7-.22,1.05-.34,1.64-.54,3.18-1.44,5.02-1.16,1.19.18,2.43.19,3.61.43,1.78.37,3.53.87,5.29,1.3.51.12,1.04.2,1.56.32,1.06.24,2.12.49,3.18.73.88.19,1.77.34,2.64.55.77.19,1.52.43,2.27.64.48.12.97.2,1.44.34.48.13.95.45,1.42.45,1.1,0,2,.62,3.03.79.21.04.4.15.59.24,1.48.7,2.96,1.32,4.6,1.54,2.67.35,5.32.79,7.99,1.14,1.04.14,2.1.19,3.14.22.45.01,1.02,0,1.32-.25.36-.3.68-.34,1.07-.32,1.96.11,3.89-.07,5.77-.62,1.02-.3,2.02-.68,3.01-1.06.47-.19.96-.41,1.33-.74.72-.65,1.55-1.08,2.46-1.37.87-.27,1.78-.42,2.65-.71,1.11-.39,2.19-.89,3.3-1.3.86-.33,1.71-.7,2.6-.89,1.28-.26,2.58-.37,3.88-.55.32-.04.64-.06.96-.11.74-.14,1.48-.31,2.22-.43.58-.09,1.16-.14,1.74-.2.33-.03.66-.11.98-.07.33.04.65.2.89.28-.77.84-1.64,1.55-2.2,2.45-1.01,1.65-1.3,3.45-.18,5.2.34.53.91.92,1.4,1.35.74.66,1.7.89,2.57,1.29,1.41.64,2.87,1.03,4.42,1.06,1.3.01,2.6.14,3.89.09,1.59-.06,3.18-.26,4.77-.38,1.06-.08,1.92-.54,2.61-1.35.57-.65.58-1.42.53-2.22-.08-1.19-.43-2.23-1.41-3-.78-.6-1.53-1.23-2.29-1.85-.25-.21-.48-.43-.82-.73.78,0,1.41-.13,1.96.02,1.28.35,2.59.36,3.87.57,1.57.26,3.14.57,4.69.91,1.42.31,2.69,1.03,4.23,1.03,1.46,0,2.76.86,4.08,1.48,1.06.49,2.13.95,3.19,1.44.6.27,1.19.58,1.79.86.98.44,1.93.96,3.07.94.6,0,1.19.14,1.78.25.3.06.58.2.87.29.87.25,1.74.49,2.61.75.97.29,1.95.56,2.91.9.23.08.5.15.7.31.21.02.41.04.63.04.14,0,.27,0,.4.01.16-.06.34-.07.57-.05.71.05,1.44.08,2.14-.03.91-.14,1.78-.28,2.55.39.07.06.18.11.28.12,1.14.12,2.29.2,3.3-.54.05-.04.14-.05.21-.04.71.1,1.42.19,2.13.3.33.04.65.12.97.17,1.24.16,2.48.17,3.71.01,1.3-.17,2.63-.27,3.86-.66,1.53-.48,3.07-.59,4.64-.65.8-.03,1.61-.07,2.38-.24.77-.16,1.51-.51,2.27-.75,1.21-.39,2.39-.89,3.68-1.06.88-.13,1.72-.56,2.6-.73.76-.15,1.55-.14,2.33-.18.94-.05,1.88-.05,2.82-.12.67-.05,1.35-.1,1.69-.85.03-.08.25-.12.38-.1.78.05,1.61.33,2.12-.57,0-.02,0-.03.02-.04,0,0,.01,0,.02,0h0s.12-.02.17-.04c.2-.09.46-.13.58-.28.45-.55,1.09-.73,1.7-1,.22-.09.41-.28.63-.41.42-.26.75-.63,1.38-.5.4.1.87-.06,1.29-.17.81-.24,1.59-.58,2.41-.76,1.27-.3,2.44-.8,3.55-1.48.54-.32,1.07-.68,1.64-.89.84-.31,1.65-.62,2.21-1.37.6-.8,1.46-1.03,2.38-1.17.38-.06.79-.17,1.08-.39.68-.53,1.3-1.15,1.95-1.71.86-.73,1.7-1.47,2.59-2.16.36-.29.85-.43.93-.97v-.08s.03-.06.06-.09c.19-.42.58-.63.99-.8.65-.28,1.3-.55,1.96-.78.33-.11.66-.11.91.29.38.62.78,1.26,1.29,1.78.92.97,1.92,1.87,2.89,2.79.55.53,1.07,1.12,1.7,1.54.51.34,1.14.54,1.75.67,1.01.21,2.04.33,3.07.47.8.1,1.61.26,2.42.24.11-.01.22-.04.34-.06.64-.15,1.27-.36,1.91-.53.91-.23,1.83-.4,2.71-.7,1.06-.35,2.07-.89,2.8-1.73,1.11-1.27,1.28-2.81.69-4.4ZM131.44,207.44c.09,1.07.32,2.15.66,3.16.33.99.22,1.96.19,2.94-.01.33-.02.67-.12.97-.09.25-.31.46-.47.68-.21-.16-.47-.28-.63-.49-.92-1.18-1.57-2.52-2.06-3.93-.26-.74-.34-1.56-.62-2.3-.74-2-.67-4.1-.73-6.16-.05-1.41.11-2.85.33-4.25.12-.79.54-1.55.83-2.32.01-.05.06-.09.06-.14.22-1.24,1-2.22,1.49-3.33.32-.7.49-1.47.75-2.2.13-.36.29-.71.47-1.04.5-.88.97-1.76,1.51-2.61.61-.96,1.21-1.92,2.27-2.52.74-.41,1.36-1.06,2.07-1.55.89-.63,1.81-1.22,2.73-1.81,1.38-.89,2.87-1.54,4.41-2.08.77-.27,1.57-.46,2.41-.29,1.06.21,2.13.41,3.2.52.52.05,1.06-.15,1.6-.18.76-.05,1.53-.04,2.3-.06.09,0,.19-.01.28-.03,1.16-.21,2.3-.06,3.43.21.69.16,1.39.29,2.04.54.94.37,1.86.81,2.77,1.26.84.41,1.67.85,2.46,1.35.92.58,1.79,1.22,2.66,1.87,1.82,1.35,2.84,3.26,3.79,5.27.64,1.35.91,2.76,1,4.2.04.57-.28,1.17-.43,1.76-.05.18-.13.36-.14.54-.08,1.34-.87,2.36-1.55,3.43-.13.2-.28.38-.38.59-.48,1.06-1.42,1.67-2.29,2.35-.4.31-.83.58-1.21.92-.73.64-1.62.96-2.51,1.29-.32.13-.62.27-.95.36-.59.16-1.18.29-1.77.42-.01-.05-.02-.11-.02-.16h-2.67c-.13,0-.27,0-.39.05-.83.3-1.55-.08-2.27-.39-.39-.17-.79-.33-1.14-.56-.46-.31-.93-.63-1.29-1.03-.44-.48-.84-1.02-1.52-1.08-1.18-.12-2.16-.64-3.11-1.28-.18-.12-.4-.17-.61-.24-.41-.12-.9-.07-1.13-.58-.03-.08-.23-.12-.35-.13-.5-.05-1-.07-1.49-.11-.1,0-.23-.02-.29-.09-.46-.49-1-.38-1.56-.28-.21.04-.46.06-.65-.02-.69-.3-1.41-.36-2.14-.34-1.19.03-2.43-.11-3.51.43-1.09.55-2.4.79-3.12,1.93-.09.15-.18.29-.27.43-.34.56-.67,1.12-1.01,1.68-.22.38-.42.77-.64,1.15-.15.26-.37.51-.42.78-.13.83-.32,1.68-.25,2.5ZM245.15,181.84c1.6.4,3.2.75,4.74,1.47,2.16,1.02,4.06,2.36,5.65,4.08.84.92,1.34,2.16,2.02,3.23.49.76.54,1.52.44,2.42-.1.91.07,1.89.34,2.77.48,1.58.74,3.18.99,4.79.09.62.26,1.22.45,1.82.28.86-.12,1.5-.57,2.15-.25.36-.43.76-.63,1.14-.42.81-.85,1.62-1.55,2.24-.77.68-1.52,2.16-2.33,2.8-.51.41-1.12.69-1.68,1.06-.62.41-1.19.92-1.85,1.24-.83.41-1.76.59-2.59.98-1.28.61-2.7.65-4.01,1.2-1.03.44-2.25.45-3.39.62-.59.09-1.19.13-1.78.19-.01-.03-.01-.07-.01-.1-1.35.15-2.69.3-4.04.45-1.19.13-2.37.24-3.55.38-.59.07-1.18.22-1.76.27-1.16.1-2.33.13-3.49.24-1.12.1-2.25.26-3.37.41-.62.08-1.25.31-1.84.24-.49-.06-.94-.45-1.39-.72-.14-.09-.25-.24-.32-.38-.09-.18-.2-.41-.14-.57.24-.8.5-1.59.83-2.36.23-.52.65-.95.9-1.47.94-1.87,1.81-4.53,2.75-6.4.73-1.44.94-3.03,1.38-4.56.03-.09.04-.17.03-.26-.08-1.12.31-2.11.81-3.07.63-1.22,1.31-2.4,1.93-3.62.47-.92.87-1.88,1.33-2.8.65-1.27,1.29-2.54,2.02-3.77.45-.77,1.03-1.46,1.42-2.29.27-.57.91-.99,1.42-1.43.63-.53,1.28-1.05,1.97-1.51,1.15-.77,2.26-1.61,3.61-2.03.22-.06.48-.01.71.05,1.52.35,3.04.72,4.55,1.1ZM299.68,197.31c-.15,2.36-.23,4.72-.42,7.07-.06.71-.35,1.41-.57,2.11-.38,1.21-.35,2.45-.31,3.69,0,.23-.05.47-.08.82-.58,0-1.13-.03-1.67.01-1,.08-2,.29-2.99.28-1.37-.03-2.76-.1-4.11-.35-.99-.19-2.06-.53-2.83-1.14-.83-.65-1.8-.9-2.66-1.41-.77-.46-1.46-1.04-2.22-1.5-.49-.3-1.05-.48-1.57-.72-.57-.27-.58-.35-.32-.92.64-1.43,1.25-2.87,1.91-4.29.23-.5.54-.97.84-1.44.5-.79,1.02-1.57,1.53-2.36.39-.61.75-1.23,1.17-1.81.52-.73,1-1.53,1.66-2.09,1-.85,1.72-1.88,2.41-2.95.34-.52.59-1.11.78-1.69.24-.78.79-1.32,1.27-1.92.41-.51.74-1.1,1.2-1.56.52-.52,1.16-.92,1.71-1.41.71-.63,1.32-1.33,1.8-2.17.58-1.02,1.22-2.05,2.37-2.56.33-.15.54-.12.89.14.5.38.54.94.86,1.37.24.34.51.65.75.99.17.26.4.54.41.82.06,1.36.13,2.73.05,4.09-.07,1.02-.38,2.02-.56,3.03-.1.55-.14,1.12-.25,1.67-.21,1.07-.5,2.13-.68,3.21-.17.98-.3,1.98-.37,2.99ZM347.6,208.9c-.1.26-.44.35-1,.42-.2.02-.41,0-.61,0h0c-.92-.01-1.84.03-2.75-.02-.87-.05-1.76-.08-2.58-.33-.84-.26-1.62-.74-2.38-1.2-.42-.26-.75-.68-1.12-1.02-.05-.05-.11-.1-.17-.13-.97-.59-1.06-.84-.88-1.38.03-.82.51-1.22,1.53-1.46.8-.19,1.58-.43,2.38-.63.25-.06.52-.12.77-.06.8.18,1.6.42,2.4.63.81.21,1.4.77,2.04,1.26,1,.77,1.73,1.77,2.27,2.9.26.55.28.85.1,1.02ZM243.31,236.16c.52.16.96.38,1.36.75.36.32.65.62.52,1.12-.14.53-.58.77-1.06.85-.63.1-1.28.09-1.92.13-1,.06-2,.17-3,.17-.73,0-1.46-.15-2.19-.22-.76-.07-1.54-.05-2.29-.2-.84-.17-1.67-.44-2.46-.76-.59-.24-1.15-.58-1.67-.96-1.45-1.03-1.57-3.04-.18-4.42.85-.82,1.8-1.09,2.88-1.19.07,0,.13-.02.2-.03.01,0,.03-.01.04-.01.03,0,.21-.03.32-.05.02,0,.04,0,.06-.01,0,0,0,0,.01,0,0,0,.02,0,.02,0,.19,0,.38.05.57.12.13,0,.26,0,.39.05.02,0,.04,0,.05.01.14.05.3.12.41.17,0,0,0,0,0,0,.24.04.48.08.86.06,0,0,.09.04.1.04.1.05.12.03.24.03h.26c1.35.59,2.67,1.21,3.79,2.18.57.49,1.07,1.06,1.64,1.55.31.26.67.49,1.05.61ZM371.7,222.75c-.38.97-1.03,1.7-1.77,2.38-.33.31-.61.69-.99.91-.78.47-1.62.72-2.51.79-.2.03-.41.06-.62.08-1.2-.14-2.54-.27-3.87-.46-.54-.08-1.1-.21-1.59-.46-.43-.22-.79-.61-1.14-.96-.79-.81-1.56-1.63-2.32-2.47-.6-.66-1.24-1.3-1.74-2.03-.42-.59-.32-1.13.27-1.35.23-.16.49-.27.75-.35.39-.11.68-.32,1.01-.55.61-.42,1.3-.75,1.97-1.09,1.12-.57,2.38-.46,3.58-.69.59-.11,1.28.18,1.89.38.83.26,1.62.66,2.45.93,1.06.33,1.95.94,2.84,1.57.48.34.94.71,1.37,1.11.62.56.74,1.48.42,2.26Z"/>
      </g>
      <g>
        <path class="cls-1" d="M230.44,99.98c.42-.34.81-.65,1.18-.97.31-.27.62-.55.91-.84.52-.51,1.07-.98,1.53-1.54,1.13-1.39,2.42-2.54,4.09-3.24.31-.13.62-.31.89-.52,1.2-.95,2.61-1.19,4.07-1.38.99-.13,1.95-.43,2.94-.6.59-.11,1.2-.22,1.8-.18,1.08.06,2.14.25,3.22.34.84.07,1.69.12,2.53.11,1.65,0,3.28.14,4.88.6,1.02.29,2.05.45,3.02.95.97.51,1.68,1.24,2.38,2.02.48.54.99,1.06,1.43,1.64.42.56.76,1.19,1.14,1.79.19.31.37.62.55.94.07.12.12.25.17.38.38,1.1.86,2.17,1.11,3.3.3,1.37.54,2.77.41,4.2-.07.73.1,1.49,0,2.21-.12.85.21,1.68-.07,2.53-.24.71-.19,1.52-.42,2.23-.26.82-.55,1.71-1.08,2.36-.85,1.04-1.88,1.93-2.87,2.84-.72.66-1.63.92-2.57,1.15-.74.18-1.45.52-2.15.83-1.12.49-2.22,1.03-3.34,1.51-.87.37-1.78.65-2.65,1.03-.48.21-.88.6-1.36.83-.91.44-1.85.82-2.77,1.22-.45.2-.91.38-1.49.62.71,1.38,1.38,2.69,2.05,3.99.41.78.79,1.58,1.24,2.34.7,1.18,1.35,2.4,2.44,3.3.58.48,1.09,1.1,1.75,1.44,1.17.6,2.4,1.05,3.75,1.22,1.04.13,2.04.54,3.05.85.92.28,1.85.47,2.82.42.14,0,.29-.05.42-.01.84.25,1.45-.16,1.98-.73.99-1.07,2.24-1.56,3.66-1.74.34-.04.66-.31.99-.46.21-.1.43-.24.65-.24.08,0,.17.33.25.5.14.29.27.59.43.88.74,1.31-.1,2.92-1.57,3.11-1.65.22-3.31.48-4.85,1.2-.28.13-.64.11-.97.13-.97.06-1.94.16-2.9.13-.9-.03-1.85-.06-2.68-.36-1.09-.4-2.19-.58-3.32-.78-1.71-.29-3.36-.8-4.72-1.92-.62-.51-1.11-1.18-1.61-1.82-1.48-1.86-2.49-4-3.5-6.12-.43-.9-.73-1.85-1.09-2.78-.2-.53-.38-1.06-.59-1.58-.12-.29-.25-.76-.45-.81-.41-.1-.88-.01-1.31.09-.58.14-1.1.51-1.75.32-.12-.04-.28.02-.41.06-1.7.59-3.44.35-5.17.2-1.46-.13-2.7-.76-3.93-1.46-1.18-.68-1.9-1.72-2.35-2.94-.34-.91.17-1.68.69-2.39.23-.32.45-.66.71-.95.53-.59,1.1-1.11,1.88-1.36.5-.16.97-.41,1.47-.59,1.5-.53,2.97-.56,4.5-.02,1.64.58,3.2,1.29,4.39,2.58.9.97,1.69,2.04,2.49,3.1.2.27.35.35.63.17.08-.05.2-.08.3-.08,1.37,0,2.53-.64,3.54-1.44,1.33-1.04,2.92-1.46,4.41-2.12,1.41-.63,2.87-1.15,4.33-1.69.54-.2,1.18-.22,1.67-.49.82-.45,1.56-1.05,2.33-1.57.38-.26.8-.47,1.18-.73.93-.64,1.06-1.67,1.24-2.65.14-.77.29-1.55.33-2.33.04-.63-.08-1.27-.13-1.91-.04-.54-.07-1.09-.13-1.63-.11-1.01-.23-2.02-.38-3.03-.06-.42-.18-.84-.34-1.23-.4-.96-.82-1.9-1.28-2.84-.72-1.48-1.66-2.82-2.88-3.94-.54-.5-1.21-.85-1.81-1.27-1.27-.89-2.75-.91-4.21-1-1.09-.07-2.18-.23-3.27-.21-1.52.03-3.03-.51-4.54-.1-.6.16-1.16.44-1.76.59-.86.21-1.73.4-2.6.52-1.58.23-2.96.87-4.21,1.85-.43.34-.95.59-1.34.97-.76.74-1.45,1.56-2.2,2.32-.7.71-1.46,1.36-2.17,2.07-.45.45-.8.95-.94,1.61-.09.4-.4.75-.58,1.14-.23.5-.46,1-.65,1.52-.46,1.24-.93,2.47-1.32,3.73-.44,1.44-1.06,2.79-1.77,4.11-.9,1.67-1.74,3.37-2.52,5.1-.5,1.1-.81,2.28-1.24,3.41-.53,1.39-1.2,2.72-2.14,3.89-.55.69-1.02,1.47-1.67,2.05-.59.53-1.35.9-2.08,1.25-.65.31-1.07.84-1.56,1.31-.16.15-.34.28-.52.41-.35.26-.81.44-1.04.78-.51.72-1.3.98-2.01,1.32-1.09.53-2.27.86-3.38,1.35-.85.37-1.63.87-2.47,1.27-.55.26-1.13.51-1.72.6-.77.11-1.46.34-2.14.71-1.32.73-2.77,1.09-4.24,1.38-.37.07-.72.23-1.09.32-.92.23-1.83.46-2.76.66-1.05.22-2.11.46-3.18.57-.97.1-1.97.1-2.95.03-.82-.05-1.7-.1-2.42-.44-.92-.42-1.89-.2-2.8-.52-.61-.22-1.33-.16-1.93-.4-.77-.3-1.61-.44-2.24-1.1-.31-.33-.84-.44-1.23-.7-1.11-.73-1.99-1.7-2.84-2.71-1.08-1.27-1.77-2.74-2.32-4.29-.28-.79-.69-1.53-1.06-2.33-1.44.7-2.88,1.35-4.28,2.09-.45.24-.81.67-1.19,1.04-.7.67-1.34,1.38-1.91,2.18-.7.99-1.86,1.41-2.96,1.84-.61.24-1.23.48-1.79.81-1.31.76-2.72,1.19-4.18,1.55-.8.2-1.56.54-2.37.69-.95.18-1.93.22-2.89.33-.74.09-1.47.2-2.2.29-.39.04-.79.06-1.19.07-1.49.02-2.93-.28-4.35-.72-.6-.18-1.26-.24-1.83-.49-1.05-.45-2.12-.9-3.06-1.54-1.41-.95-2.74-2.01-4.04-3.11-.72-.61-1.3-1.38-1.9-2.11-.73-.88-1.46-1.78-2.13-2.71-.44-.62-.77-1.31-1.15-1.98-.04-.07-.07-.16-.12-.22-1.33-1.37-1.54-3.08-1.51-4.88.03-1.69.02-3.37.01-5.06,0-.73.09-1.4.39-2.08.26-.59.29-1.29.37-1.94.18-1.44.78-2.75,1.24-4.1.24-.7.36-1.45.65-2.13.39-.94.79-1.87,1.59-2.58.75-.67,1.37-1.53,2.18-2.11,1.02-.72,2.17-1.26,3.29-1.82.94-.47,1.95-.81,2.87-1.3.95-.51,1.81-1.21,2.77-1.68,1.31-.64,2.66-1.23,4.05-1.7,1.68-.57,3.41-.72,5.2-.3.93.22,1.93.16,2.89.24.83.08,1.66.22,2.49.27,1.15.07,2.04.73,3.02,1.2.5.25,1.02.46,1.53.68,1.18.49,2.36.96,3.53,1.48.4.18.78.44,1.12.72,1.23.98,2.46,1.95,3.65,2.97.54.46,1.01,1.02,1.51,1.54.28.28.51.65.84.82.79.41.66,1.95.03,2.46-.81.67-3.18.54-3.83-.55-.14-.24-.22-.54-.28-.82-.2-.89-.64-1.59-1.4-2.12-.85-.59-1.74-1.19-2.45-1.93-1.5-1.56-3.47-2.17-5.4-2.91-.29-.11-.58-.22-.87-.33-1.57-.64-3.23-.74-4.9-.78-.5-.01-1.01-.07-1.5-.15-1.28-.21-2.55-.19-3.85,0-1.33.19-2.45.75-3.62,1.32-1.48.71-2.59,1.94-4.03,2.7-.72.38-1.46.71-2.2,1.02-1.33.57-2.53,1.31-3.52,2.39-.49.53-1.11.94-1.6,1.47-.49.54-.9,1.13-1.1,1.87-.19.68-.5,1.33-.75,1.99-.13.36-.31.72-.36,1.09-.17,1.13-.48,2.25-.2,3.44.13.55-.1,1.2-.22,1.8-.26,1.37-.42,2.73-.49,4.13-.06,1.29.3,2.38.89,3.44.51.93,1.02,1.87,1.61,2.74.6.88,1.28,1.71,1.98,2.52.95,1.1,1.89,2.21,2.93,3.22.86.83,1.84,1.54,2.97,2.02.61.26,1.17.68,1.8.87,1.23.37,2.48.68,3.74.91,1.38.26,2.77.31,4.16-.1.64-.19,1.38-.06,2.06-.14.59-.07,1.18-.19,1.75-.35,1-.29,2.01-.59,2.98-.96,1.03-.39,2.03-.88,3.04-1.32.11-.05.21-.13.33-.16.45-.1.68-.31.75-.82.1-.72.45-1.25,1.27-1.44.39-.09.76-.41,1.06-.71.44-.45.94-.72,1.51-.97,1.23-.53,2.42-1.18,3.64-1.75,1-.47,1.74-1.27,2.55-1.97.3-.26.65-.49,1.01-.62.82-.3.8-.98.78-1.63-.03-.67-.25-1.35-.2-2.02.07-.91.3-1.81.48-2.71.09-.48.26-.96.3-1.44.09-1.09.45-2.08.84-3.08.32-.84.49-1.73.72-2.6.2-.77.4-1.53.6-2.3.14-.54.04-1.1.37-1.62.47-.75.84-1.57,1.22-2.37.35-.73.59-1.53,1.01-2.22.82-1.33,1.65-2.68,2.92-3.66.26-.2.57-.31.84-.5.42-.29.83-.61,1.24-.92.86-.66,1.7-1.35,2.59-1.96.51-.35,1.09-.59,1.66-.86.59-.28,1.17-.56,1.78-.8.67-.26,1.35-.53,2.05-.69.85-.2,1.73-.3,2.6-.41,1.08-.13,2.16-.3,3.25-.31,1.31-.01,2.56-.29,3.83-.54.68-.14,1.49.05,2.17.3.86.32,1.73.47,2.61.49,1.23.03,2.34.53,3.5.82,1.11.27,2.22.61,3.26,1.09,1.99.92,3.8,2.11,5.1,3.95.45.64,1.05,1.17,1.45,1.83.59.95,1.12,1.95,1.57,2.98.31.72.55,1.5.65,2.28.16,1.3.21,2.62.27,3.93.02.48,0,.97-.07,1.45-.19,1.59-.79,2.98-1.96,4.12-.48.47-.8,1.1-1.18,1.67-.72,1.07-1.59,1.95-2.69,2.68-1.6,1.07-3.37,1.56-5.19,1.99-1.1.26-2.18.62-3.29.8-.78.13-1.6.02-2.4.03-1.02.02-2.04.06-3.05.09-.42,0-.84-.04-1.25,0-1.18.09-2.35.23-3.53.29-1.09.06-2.18.02-3.26.07-.7.03-1.4.14-2.1.19-1.31.09-2.62.23-3.93-.17-.8-.24-1.64-.04-2.4.27-.74.3-1.49.43-2.26.37-2.02-.16-3.83.4-5.53,1.46-.26.17-.62.18-.93.28-.68.21-1.02.7-.87,1.42.21.99.46,1.97.73,2.94.16.58.38,1.15.63,1.69.68,1.49,1.59,2.84,2.96,3.78.75.52,1.62.87,2.44,1.27.16.08.37.06.56.08.67.09,1.35.11,1.99.3.67.2,1.31.28,2,.23.38-.03.78.13,1.17.18.85.11,1.71.24,2.57.29.82.05,1.64.03,2.46,0,.25,0,.5-.14.75-.21,1.73-.45,3.45-.94,5.19-1.34.58-.13,1.21-.03,1.82-.08.43-.03.86-.13,1.28-.2.12-.02.29-.04.34-.12.57-.95,1.66-.84,2.48-1.03,1.27-.28,2.27-.96,3.35-1.55.77-.42,1.54-.85,2.31-1.27.06-.03.13-.05.19-.09.81-.59,1.62-1.18,2.44-1.77.43-.31.88-.59,1.31-.9.35-.24.68-.51,1.03-.74.37-.24.77-.44,1.16-.66.32-.19.69-.32.95-.57,1.8-1.75,3.24-3.77,4.22-6.09.35-.82.51-1.74.94-2.51.79-1.41,1.53-2.83,2.13-4.33.62-1.55,1.28-3.09,1.96-4.61.41-.92.98-1.77,1.36-2.7.37-.9.72-1.85.85-2.8.14-1.01.66-1.77,1.17-2.57.17-.27.48-.48.29-.75ZM175.67,122.39c.27-.14.46-.25.66-.35.8-.39,1.57-.86,2.4-1.15.79-.27,1.63-.25,2.49-.24,1.21.01,2.42-.32,3.63-.48.73-.1,1.35-.37,1.93-.86.45-.38,1.11-.41,1.63-.1.9.53,1.83.69,2.84.5.22-.04.45-.07.67-.07,1.57.05,3.13.16,4.7.14.83-.01,1.65-.32,2.48-.38,1.27-.08,2.54-.08,3.81-.08,1.12,0,2.23.05,3.35.05.5,0,1.06.08,1.48-.12,1.33-.63,2.76-.93,4.16-1.32,1.4-.39,2.46-1.25,3.34-2.31.7-.84,1.28-1.81,1.79-2.78.46-.89.91-1.84,1.1-2.82.27-1.43.44-2.91.08-4.36-.26-1.04-.48-2.13-.94-3.09-.7-1.48-1.91-2.6-3-3.81-.9-1-1.99-1.73-3.14-2.3-1.11-.56-2.37-.83-3.58-1.18-.52-.15-1.07-.2-1.6-.27-1-.14-2.04-.12-2.98-.42-1.11-.34-2.16-.61-3.3-.27-.31.09-.65.1-.98.15-2.15.31-4.35.26-6.47.77-1.04.25-2.07.61-3.04,1.06-.93.44-1.77,1.06-2.66,1.59-.82.49-1.51,1.1-2.08,1.87-.24.32-.56.65-.91.81-.93.41-1.84.86-2.48,1.67-.48.6-1.09,1.23-1.25,1.93-.19.9-.37,1.79-.85,2.58-.44.72-.39,1.53-.56,2.3-.36,1.68-.82,3.36-1.93,4.72-.67.82-1.01,1.68-1.01,2.71,0,.1,0,.21-.03.31-.56,1.86,0,3.66.23,5.6ZM243.76,124c-.71-1.47-1.79-2.5-3.15-3.18-1.04-.52-2.03-1.21-3.35-.98-1.3.22-2.58.38-3.53,1.45-.28.32-.34.59-.21.97.26.77.91,1.22,1.52,1.57,1.46.84,3.01,1.43,4.77,1.25.91-.09,1.8-.15,2.58-.72.16-.12.43-.11.65-.16.24-.06.48-.13.73-.19Z"/>
        <path class="cls-1" d="M329.59,94.52c-.81-.54-1.76-.63-2.66.11-.57.47-1.09,1-1.65,1.48-.85.73-1.83,1.06-2.94,1.31-1.72.37-3.42.64-5.18.52-.44-.03-.89,0-1.37-.02-.28-.37-.77-.43-1.27-.51-1.09-.19-2.19-.31-3.25-.61-1.42-.41-2.8-1.01-4.32-1.03-.33,0-.66-.1-.97-.21-.69-.24-1.37-.52-2.05-.79-1.35-.54-2.71-1.05-4.04-1.64-.82-.36-1.57-.91-2.4-1.24-1.67-.69-3.23-1.57-4.74-2.54-.26-.17-.44-.37-.37-.71.11-.58.25-1.15.32-1.73.06-.48-.19-.9-.6-1.13-.4-.22-.86-.27-1.34-.03-.67.33-.95.91-1.21,1.55-.24.58-.4.6-.94.27-.95-.58-1.9-1.17-2.87-1.71-.49-.28-1.02-.48-1.54-.71-.87-.4-1.73-.84-2.62-1.19-.41-.16-.89-.18-1.34-.23-.43-.05-.87,0-1.28-.11-1.14-.31-2.25-.7-3.39-1.02-1.58-.44-3.17-.86-4.76-1.29-.97-.26-1.94-.54-2.92-.8-.91-.25-1.82-.49-2.73-.73-1.38-.38-2.74-.86-4.14-1.12-1.89-.33-3.81-.49-5.71-.73-1.01-.13-2.01-.26-3.02-.4-.87-.12-1.74-.32-2.62-.37-1.37-.09-2.74-.08-4.12-.12-1.61-.04-3.22-.11-4.83-.15-1.01-.03-2.03-.07-3.04-.05-1.08.01-2.16.1-3.23.12-1.6.04-3.2.06-4.81.09-.76.02-1.54.03-2.3.1-.96.09-1.91.31-2.87.37-2.39.16-4.78.19-7.16.41-2.1.2-4.19.59-6.29.87-1.4.19-2.8.36-4.2.52-2.51.29-5,.65-7.51.85-2.6.21-5.2.35-7.74.99-.33.08-.67.16-1.02.19-.7.07-1.41.12-2.12.14-1.06.03-2.12.05-3.17.02-.47,0-.84-.39-.75-.67.35-1.17.6-2.37.49-3.6-.11-1.37-.48-2.68-1.16-3.89-.56-1.01-1.49-1.58-2.45-2.16-.62-.36-1.23-.54-1.92-.51-.5.02-1,.08-1.5.06-1.06-.03-1.86.41-2.43,1.28-.56.85-1.05,1.75-1.64,2.58-.74,1.03-.55,2.29.16,3.11.24.28.42.68.5,1.05.15.65.4,1.17.92,1.62.92.8,1.97,1.31,3.08,1.75.51.21.99.49,1.49.73.02.06.04.12.06.19-.52.33-1.04.68-1.57,1.01-.35.21-.72.38-1.07.6-.99.62-1.95,1.29-2.96,1.89-1.57.93-3.25,1.59-5.04,1.93-1.14.22-2.33.3-3.46.58-1.29.33-2.57.23-3.86.14-.3-.02-.61-.11-.91-.15-.57-.09-1-.47-1.5-.68-1.32-.56-2.7-1.07-4.1-1.42-1.27-.31-2.59-.39-3.9-.58-.48-.06-.99-.07-1.45-.2-1.83-.52-3.67-.56-5.5-.11-1.07.26-2.12.63-3.23.79-1.26.18-2.5.52-3.74.81-.33.08-.69.15-.98.33-1.34.82-2.67,1.66-3.98,2.53-1.81,1.22-3.52,2.56-5.12,4.08-.75.72-1.29,1.57-1.96,2.34-.75.85-1.28,1.91-2.1,2.68-.98.92-1.58,2.02-2.11,3.2-.3.67-.48,1.39-.71,2.09-.33,1-.66,2.01-.99,3.02-.13.4-.23.82-.39,1.2-.25.58-.56,1.12-.81,1.69-.28.66-.53,1.33-.79,2-.3.76-.61,1.52-.88,2.29-.26.74-.53,1.49-.7,2.25-.21.93-.22,1.91-.47,2.82-.33,1.25-.8,2.46-1.23,3.68-.62,1.72-1.25,3.43-1.87,5.15-.3.81-.6,1.61-.87,2.43-.2.55-.35,1.12-.53,1.68-.13.38-.41.62-.91.72-.12-.85-.29-1.64-.35-2.43-.11-1.49-.58-2.88-1.02-4.29-.4-1.3-.87-2.6-1.09-3.93-.22-1.33-.14-2.7-.23-4.04-.04-.62-.15-1.24-.24-1.85-.11-.72-.23-1.44-.34-2.16-.19-1.36-.41-2.71-.57-4.08-.13-1.11-.22-2.22-.3-3.34-.06-.92.04-1.87-.11-2.78-.28-1.65-.63-3.3-1.06-4.92-.5-1.88-1.08-3.72-2.57-5.13-1.04-1-2.23-1.37-3.36-.67-.82.5-1.36,1.25-1.84,2.04-.45.76-.87,1.56-1.2,2.38-.42,1.05-.79,2.12-1.09,3.2-.35,1.29-.59,2.61-.88,3.91-.33,1.47-.72,2.93-1,4.41-.2,1.01-.26,2.06-.41,3.08-.02.14-.29.36-.4.34-.53-.11-1.09-.19-1.55-.45-1.36-.75-2.87-.9-4.33-1.24-.59-.14-1.23-.11-1.79-.29-1.06-.35-2.07-.82-3.11-1.19-.63-.23-1.25-.56-1.46-1.15-.21-.59-.2-1.31-.09-1.93.24-1.26.62-2.49.91-3.73.08-.34.04-.7.04-1.05.01-.49,0-.97,0-1.45,0-.3.07-.6.05-.89-.13-1.37.27-2.66.58-3.97.19-.76.48-1.5.65-2.27.42-1.95.04-3.82-.56-5.68-.21-.63-.63-.83-1.19-.91-.21-.03-.42-.05-.62-.1-.41-.1-.72-.01-1.05.26-.27.22-.63.32-.95.45-.45.2-1.06.26-1.34.59-.91,1.06-2.03,1.96-2.54,3.35-.42,1.15-1.36,1.97-2.19,2.86-.34.37-.71.8-.83,1.26-.31,1.11-.86,1.98-1.78,2.67-.71.53-1.37,1.11-1.85,1.88-.34.53-.77,1.01-1.19,1.48-.55.63-1.13,1.23-1.69,1.85-.54.6-1.01,1.26-1.6,1.8-1.14,1.06-2.33,2.05-3.51,3.06-.15.13-.35.24-.55.28-1.25.26-2.5.6-3.77.72-1.52.15-3.07.1-4.61.13-.88.02-1.76.03-2.64.02-.74,0-1.48-.05-2.22-.11-1.43-.11-2.87-.24-4.3-.38-.99-.11-1.91-.62-2.94-.45-.58.09-1.16.14-1.75.19-.53.03-1.06,0-1.59.06-.6.08-1.23.21-1.51.85-.41.9-.38,1.86-.05,2.77.1.29.5.53.81.67.88.38,1.79.7,2.69,1.05.51.19,1,.41,1.52.58.67.22,1.37.37,2.02.64.45.2.8.65,1.25.82,1.43.53,2.89,1,4.34,1.47.43.13.91.14,1.32.31,1.15.5,4.75,1.06,6.39,1.57.66.25,1.26.56,1.77,1.08.31.19.64.09.99.06.29-.03.6.03.88.11.36.09.69.26,1.04.39,1.61.59,3.38.85,4.64,2.21.83.88,1.78,1.66,2.56,2.59,1.17,1.39,2.23,2.87,3.34,4.3.32.42.68.81,1.02,1.22.33.41.66.83,1,1.25,0,.01.01.02.02.03.07.13.14.27.21.4.72.66,1.44,1.3,2.24,1.84.83.55,1.85.82,2.75,1.28.95.49,1.97.53,2.98.56h.11c.57,0,1.13-.16,1.66-.67.52-.5.91-.29,1.15.43.16.46.3.92.5,1.35.35.76.75,1.5,1.12,2.25.97,1.96,1.95,3.92,2.92,5.88.21.41.41.83.58,1.26.04.12-.03.29-.09.42-.03.05-.2.08-.27.05-.52-.26-1.05-.48-1.38-1.02-.15-.24-.42-.42-.66-.58-.46-.31-.99-.52-1.42-.87-.89-.72-1.76-1.48-2.59-2.27-1.28-1.23-2.78-2.22-3.96-3.57-.8-.92-1.68-1.78-2.57-2.62-1.02-.95-2.09-1.84-3.13-2.78-.29-.26-.47-.68-.79-.86-1.2-.69-2.42-1.33-3.65-1.96-1.04-.54-2.12-.5-3.22-.16-.41.13-.84.3-1.26.3-1.32.01-2.37.69-3.43,1.32-1.29.77-2.55,1.59-3.79,2.43-.54.38-1.08.81-1.32,1.5-.12.32-.35.72-.63.85-1.05.47-1.71,1.37-2.55,2.07-.46.39-1.06.63-1.63.88-.19.09-.56.05-.41-.35.1-.29.29-.57.47-.83.45-.64.96-1.25,1.38-1.92.37-.6.68-1.24.99-1.88.41-.83.94-1.6,1.14-2.55.15-.66.52-1.27.83-1.88.16-.3.45-.52.62-.81.37-.62.7-1.26,1.03-1.9.24-.45.61-.91.62-1.37.02-1.04-.08-2.1-.26-3.13-.01-.05-.03-.1-.04-.15-.16-.21-.28-.45-.34-.72-.43-.59-1.16-.93-1.94-.86-.32.03-.63.16-.94.24-1.2.34-2.41.63-3.47,1.31-.38.24-.73.52-1.14.67-.95.37-1.75.96-2.55,1.56-.44.34-.92.62-1.4.89-.95.52-1.96.94-2.85,1.54-1.08.71-2.21,1.26-3.38,1.77-1.21.53-2.52.77-3.66,1.55-.91.63-2.01.97-3.02,1.46-.73.35-1.4.85-2.16,1.07-1.32.37-2.68.59-4.03.83-.43.07-.9.1-1.32.01-1.2-.25-2.41-.21-3.62-.23-1.48-.01-2.85-.49-4.16-1.16-.4-.2-.79-.43-1.21-.56-1.39-.45-2.79-.82-4.07-1.58-.72-.43-1.21-1.03-1.66-1.68-.57-.82-1.15-1.66-1.6-2.56-.44-.89-.59-1.94-1.11-2.78-.77-1.24-.9-2.62-1-3.96-.08-1.06-.37-2.15-.15-3.25.1-.48-.08-1.01-.03-1.5.08-1.03.3-2.05.33-3.08.03-.7.21-1.3.54-1.89.22-.41.39-.85.56-1.28.23-.6.4-1.22.66-1.8.43-.96.91-1.91,1.37-2.86.09-.17.2-.34.34-.46.51-.47,1.04-.9,1.56-1.36,1.16-1.01,2.28-2.07,3.49-3.02.74-.58,1.65-.95,2.42-1.5.5-.36,1.01-.57,1.59-.7.38-.08.75-.23,1.13-.36.62-.22,1.25-.45,1.88-.66.24-.08.49-.15.75-.21.25-.05.51-.08.76-.12.45-.07.91-.08,1.32-.23,1.25-.45,2.5-.77,3.84-.56.4.06.81.06,1.22.09.24.01.48-.01.7.03.56.12,1.07.38,1.71.23.42-.1.92.09,1.37.21.48.13.93.42,1.41.48,1.47.19,2.74.89,4,1.55,1.59.83,3.09,1.85,4.58,2.86.89.61,1.7,1.28,2.11,2.41.24.67.95,1.25,1.58,1.68.65.44,1.88.12,2.4-.43.62-.66.77-1.71.37-2.52-.55-1.14-1.44-2.03-2.41-2.74-1.82-1.33-3.75-2.5-5.67-3.68-1.05-.64-2.16-1.22-3.29-1.72-.91-.4-1.88-.72-2.85-.92-1.16-.25-2.36-.36-3.54-.49-.84-.1-1.68-.15-2.52-.19-.58-.03-1.16-.01-1.74-.01-.29.01-.59.12-.85.05-1.2-.31-2.33-.16-3.43.38-.09.04-.19.08-.29.09-1.15.13-2.3.24-3.44.38-.3.04-.6.14-.87.28-.91.47-1.76,1.12-2.72,1.45-1.65.56-3,1.58-4.21,2.72-1.24,1.17-2.45,2.35-3.78,3.39-.66.52-1.33,1.05-1.89,1.66-.34.38-.5.93-.74,1.4-.41.8-.88,1.57-1.21,2.4-.22.53-.19,1.16-.37,1.72-.3.96-.69,1.89-1.02,2.84-.11.31-.14.64-.17.97-.07.73-.14,1.47-.18,2.2-.03.73-.04,1.45-.02,2.18.02.67.1,1.33.14,2,.07,1.03.12,2.07.21,3.1.04.39.16.77.26,1.15.13.46.25.92.42,1.36.33.83.71,1.65,1.06,2.47.35.86.58,1.79,1.07,2.56.8,1.26,1.71,2.45,2.9,3.43,1.1.91,2.33,1.51,3.6,2.08,1.02.45,2.08.78,3.12,1.17.21.08.4.22.61.27.62.17,1.25.29,1.87.47.99.27,1.97.44,3,.27.47-.08.98-.09,1.44.01,1.21.26,2.39.62,3.62.12.05-.02.1-.03.15-.03,1.49.04,2.84-.53,4.13-1.13,1.15-.55,2.35-.81,3.56-1,.97-.16,1.81-.48,2.63-1,.71-.45,1.46-.87,2.23-1.18.68-.26,1.43-.34,2.14-.54.34-.1.67-.27.98-.46.69-.44,1.36-.92,2.05-1.38.38-.26.74-.56,1.14-.78.79-.45,1.61-.85,2.42-1.27.79-.41,1.54-.93,2.37-1.22.78-.26,1.45-.63,2.09-1.13.26-.2.55-.43.86-.52.29-.08.8-.11.91.04.19.27.29.77.16,1.06-.49,1.13-1.09,2.22-1.66,3.33-.1.2-.29.36-.37.56-.36.86-.69,1.73-1.03,2.59-.2.51-.37,1.02-.6,1.51-.18.38-.44.73-.66,1.1-.63,1.01-1.26,2.02-1.89,3.04-.62,1-1.38,1.97-1.01,3.28.01.07-.08.17-.12.25-.39.79-.06,1.98.72,2.24.66.22,1.41.34,2.11.05.26-.1.49-.31.72-.49.36-.29.71-.59,1.05-.9.23-.21.43-.44.66-.65.19-.17.4-.33.62-.46.51-.3,1.06-.55,1.55-.88.68-.44,1.27-1.02,1.97-1.4.85-.46,1.42-1.11,1.89-1.94.3-.54.76-1.04,1.25-1.44.81-.66,1.7-1.22,2.56-1.83.44-.31.88-.57,1.48-.51.75.08,1.51.08,2.26.01.45-.04.87-.18,1.33-.04,1.19.34,2.16,1.08,3.18,1.73,0,0,0,.03.02.04.86.82,1.71,1.65,2.58,2.46.7.64,1.45,1.23,2.14,1.88.74.7,1.42,1.48,2.18,2.15.93.82,1.95,1.52,2.87,2.34,1.28,1.14,2.56,2.29,4.04,3.18.44.27.86.58,1.27.89.53.39,1.03.79,1.56,1.18.35.26.8.44,1.05.77.33.42.7.58,1.19.61.65.05,1.29-.13,1.95.15.57.24,1.42-.42,1.42-1.09,0-.57.16-1.22-.3-1.73-.09-.09-.09-.26-.12-.39-.1-.35-.17-.71-.29-1.05-.1-.27-.28-.51-.39-.77-.88-2.1-1.76-4.2-2.64-6.3-.63-1.53-1.25-3.06-1.91-4.58-.14-.33-.02-.42.22-.6.61-.46,1.21-.95,1.76-1.47.26-.25.4-.64.61-.94.23-.32.49-.61.71-.93.15-.21.23-.46.36-.69.58-1.04,1.17-2.08,1.74-3.12.33-.6.62-1.23.99-1.8.41-.63.69-1.29.91-2.01.27-.88,0-1.92.75-2.61.36-.33.83-.64,1.29-.74.39-.09.84.15,1.27.2.32.05.69.13.97.02.63-.24,1.24-.57,1.84-.89.47-.27.9-.62,1.5-.59.15.01.33-.09.47-.18.86-.55,1.14-2.23.32-3.14-.93-1.03-2.16-1.2-3.35-1.55-.48-.13-.96-.3-1.44-.42-.28-.07-.63-.03-.65-.44-.02-.29-.04-.6.01-.88.1-.54.28-1.06.39-1.6.15-.77.17-1.57.4-2.31.34-1.13.87-2.2,1.19-3.33.31-1.03.48-2.11.66-3.18.09-.57-.06-1.21.12-1.75.48-1.42,1.06-2.8,2.12-3.92.39-.4.78-.42,1.09.07.81,1.26,1.4,2.62,1.68,4.09.24,1.19.4,2.4.6,3.6.17,1.01.4,2,.53,3.01.14,1.07.18,2.15.3,3.22.1.94.29,1.88.36,2.82.18,2.29.31,4.59.48,6.88.03.4.13.79.18,1.19.13.92.2,1.85.4,2.76.3,1.37.72,2.72,1.03,4.09.4,1.74.74,3.5,1.13,5.24.21.94.45,1.85,1.25,2.54.96.85,2.05.87,2.89-.08.07-.09.19-.14.28-.22.48-.47,1.06-.88,1.41-1.44.4-.64.65-1.4.9-2.12.45-1.34.86-2.68,1.27-4.03.09-.31.08-.65.14-.97.18-.87.37-1.74.56-2.61.03-.13.11-.24.17-.36.6-1.03,1.35-2,1.77-3.1.49-1.26.7-2.64,1.03-3.96.11-.44.2-.88.35-1.31.53-1.51,1.11-3,1.62-4.52.41-1.19.75-2.4,1.13-3.6.27-.84.58-1.66.84-2.49.16-.51.22-1.06.43-1.55.43-1.01.92-2,1.4-2.99.39-.8.81-1.57,1.54-2.12,1.09-.84,2.07-1.8,3.01-2.8.38-.4.87-.7,1.21-1.12,1.01-1.24,2.42-1.93,3.72-2.77.67-.45,1.45-.74,2.08-1.23.96-.74,2.09-1.05,3.19-1.36,1.21-.33,2.48-.38,3.7-.73,1.34-.37,2.74-.53,4.12-.75.3-.04.65-.03.92.09,1.04.45,2.12.42,3.2.38.83-.03,1.57.2,2.29.58.48.25.96.53,1.46.74.3.11.5.24.56.56.08.4.35.54.75.58.87.1,1.74.22,2.6.38.87.17,1.72.37,2.6.21.2-.04.43-.03.62.04.73.29,1.45.14,2.2.09,2.24-.14,4.35-.86,6.49-1.43,1.22-.32,2.35-.91,3.52-1.41.34-.15.67-.34.97-.57,1.54-1.21,3.14-2.3,4.87-3.23.44-.24.84-.6,1.18-.98.55-.6,1.13-.86,1.97-.75,1.55.22,3.12.3,4.67.07,2.35-.34,4.7-.68,7.03-1.13,1.91-.38,3.84-.26,5.76-.33,1.68-.07,3.33-.24,4.98-.54.71-.14,1.43-.29,2.15-.4.92-.14,1.85-.22,2.77-.38,1.6-.27,3.19-.68,4.8-.88,2.06-.25,4.14-.41,6.22-.51,2.63-.13,5.26-.18,7.89-.23,1.98-.03,3.95-.03,5.93-.03.78.01,1.55.07,2.33.08.98,0,1.95-.07,2.93-.03,1.8.07,3.6.2,5.4.31,1.75.11,3.51.18,5.25.33,1,.09,1.99.32,2.99.48.92.15,1.85.28,2.78.43.58.1,1.21.13,1.72.39.7.35,1.39.65,2.18.73.9.08,1.8.12,2.62.65.61.39.77.3,1.17-.25.86.1,1.53.68,2.45.75,1.37.11,2.74.48,4.05.91,1.7.55,3.39,1.12,5.16,1.39.19.03.36.19.55.26.46.17.91.41,1.38.48.55.07,1.07.1,1.58.41,1.16.68,2.41,1.23,3.57,1.92,1.37.8,2.7,1.67,4.02,2.55.22.14.45.51.42.74-.15,1.2-.35,2.39-.59,3.58-.18.92-.42,1.83-.68,2.73-.25.83-.51,1.66-.86,2.45-.42.93-1.02,1.79-1.38,2.75-.96,2.61-1.85,5.25-2.74,7.89-.53,1.56-.93,3.18-1.93,4.55-.25.35-.48.72-.66,1.11-.41.87-.72,1.79-1.19,2.62-.86,1.54-1.55,3.14-2.01,4.84-.24.9-.55,1.81-.6,2.72-.08,1.29.14,2.58.06,3.86-.06.96.32,1.69.79,2.4.57.85,1.18,1.68,1.86,2.43.51.57,1.09,1.19,1.77,1.47,1,.41,2.11.59,3.18.76,1.03.16,2.08.29,3.1.22,1.02-.08,2.02-.42,3.03-.67.68-.17,1.34-.43,2.03-.57,1-.2,2.02-.29,3.02-.5,1.13-.24,2.27-.46,3.27-1.11.49-.33.96-.7,1.5-.92,1.01-.44,2.08-.75,3.09-1.18.97-.41,1.89-.93,2.85-1.35.58-.26,1.2-.52,1.82-.59,1.28-.16,2.5-.61,3.81-.63.62-.01,1.08-.52,1.26-1.22.14-.55-.06-.96-.38-1.32-.59-.66-2.09-.8-2.89-.41-.72.35-1.47.6-2.21.9-.97.39-1.95.78-2.92,1.18-.62.26-1.22.55-1.84.8-1.03.4-2.07.75-3.09,1.18-1.41.59-2.77,1.34-4.22,1.81-1.77.58-3.61.95-5.42,1.4-.84.2-1.69.43-2.54.53-.7.08-1.43.07-2.12-.04-.85-.13-1.68-.42-2.51-.64-.49-.14-1.18-.13-1.44-.46-.88-1.11-1.91-2.13-2.05-3.71-.17-1.79-.12-3.52.21-5.27.23-1.22.67-2.34,1.13-3.47.1-.23.08-.51.18-.74.28-.6.6-1.17.89-1.75.22-.43.39-.89.63-1.31.4-.69.91-1.32,1.24-2.03.53-1.15.96-2.34,1.39-3.53.37-1,.67-2.03,1.02-3.04.56-1.56,1.16-3.1,1.7-4.67.37-1.09.85-2.11,1.49-3.08.45-.67.82-1.38.92-2.23.1-.79.27-1.57.53-2.32.35-1.03.23-2.18.87-3.13-.37-.49.24-.88.13-1.37-.07-.31.2-.42.49-.29.83.34,1.66.68,2.48,1.05,1.36.61,2.64,1.42,4.13,1.71.21.04.44.04.64.11,1.02.33,2.05.64,3.05,1.04.65.25,1.23.68,1.88.95.8.33,1.45.97,2.38,1.04.42.03.82.29,1.23.44.79.28,1.57.68,2.39.79.97.14,1.92.34,2.79.76.88.42,1.83.48,2.67.25.67-.19,1.16.15,1.74.12.49-.02.99.24,1.46.2,1.36-.13,2.71-.31,4.06-.53,1.21-.2,2.36-.53,3.35-1.39.93-.8,2.02-1.41,3.07-2.07.97-.62,1.1-1.82.35-2.33ZM89.75,122.96c0,1.17-.51,2.14-1.08,3.04-.56.89-1.34,1.64-1.94,2.51-.72,1.07-1.31,2.24-2.05,3.31-.26.37-.77.59-1.2.84-.06.04-.34-.12-.4-.25-.24-.54-.51-1.09-.62-1.67-.27-1.42-.76-2.76-1.25-4.1-.18-.51-.24-1.12-.16-1.65.06-.35.44-.7.75-.95,1.16-.95,2.45-1.62,3.98-1.73.45-.04.89-.21,1.34-.24.63-.05,1.26-.02,1.9-.03.57-.01.75.17.74.76,0,.07-.01.14-.01.16ZM91.61,117.55c-.35.33-.65.62-.85,1.08-.17.41-.27.99-.92.98-.69-.02-1.38-.05-2.06-.07-.76-.01-1.54-.15-2.26-.01-1.78.34-3.61.63-5.1,1.8-.55.44-1.14.94-1.46,1.55-.89,1.68-.89,3.43-.17,5.2.59,1.47,1.11,2.98,1.64,4.48.34.98.33.98-.59,1.51-.04.02-.08.07-.13.09-.37.18-.77.27-1.15.27-.1-.03-.2-.07-.3-.11-.67-.27-1.27-.7-1.95-.97-.95-.37-1.78-.9-2.54-1.53-.91-.6-1.75-1.3-2.5-2.09l-.04-.04s-.09-.09-.13-.14c-.03-.03-.06-.07-.08-.1,0,0-.01,0-.01-.01-.16-.12-.3-.24-.45-.39-.01,0-.01-.01-.01-.01-.42-.56-.83-1.13-1.23-1.69-.41-.56-.77-1.16-1.21-1.69-.56-.66-1.17-1.3-1.78-1.92-.84-.86-1.68-1.71-2.56-2.52-.45-.41-.99-.72-1.53-1.03-.52-.3-1.06-.58-1.62-.81-.42-.17-.87-.24-1.31-.35-.31-.07-.62-.12-.93-.19-.3-.07-.6-.14-.9-.21-.24-.08-.48-.15-.72-.2-1.83-.35-6.48-1.29-8.18-1.97-.7-.28-1.39-.55-2.14-.68-.3-.04-.61-.12-.89-.25-.78-.33-1.56-.66-2.29-1.08-.85-.47-1.64-1.06-2.48-1.56-.32-.2-.68-.33-1.03-.45-.4-.13-.81-.19-1.2-.32-.11-.04-.17-.22-.25-.33.03-.05.06-.09.1-.13.63.15,1.26.37,1.91.43,1.4.13,2.8.19,4.2.27.39.02.77.02,1.16.04,1.37.1,2.74.26,4.11.29,1.18.03,2.37-.08,3.55-.14.92-.05,1.87-.01,2.76-.22.93-.22,1.83-.5,2.79-.59.44-.04.92-.26,1.25-.55,1.01-.84,2.06-1.6,3.21-2.23.36-.2.71-.46,1.02-.74.9-.83,1.71-1.76,2.66-2.52,1.08-.89,2.09-1.78,2.53-3.18.2-.67.73-1.07,1.36-1.35,1.69-.78,2.57-2.12,2.75-3.96.03-.31.11-.7.32-.89,1.02-.92,1.55-2.15,2.22-3.29.23-.4.44-.77.78-1.07.51-.46,1.02-.92,1.54-1.38.29-.26.58-.32.98-.16.38.14.44.36.44.71.02,1.36-.26,2.68-.64,3.99-.15.51-.31,1.03-.46,1.54-.35,1.17-.35,2.36-.27,3.56.07.91.14,1.83.04,2.73-.14,1.43-.38,2.85-.65,4.26-.21,1.09.02,2.12.27,3.15.26,1.08,1.24,1.53,2.1,2.02.71.41,1.49.73,2.27.98,1.22.4,2.47.71,3.7,1.03,1.06.28,2.13.5,3.17.81.81.24,1.59.57,2.38.88.12.05.3.19.3.25-.15.42-.24.94-.54,1.22ZM97.17,117.74c0,.06-.02.13-.02.19-.9.21-1.79.42-2.77.66.07-.48.13-.92.21-1.35.06-.28.22-.44.53-.32.68.27,1.37.55,2.05.82ZM182.48,77.38c.08,1.09-.28,2.09-.67,3.08-.21.51-1.02.61-1.64.25-.41-.24-.8-.63-1.24-.69-.54-.08-.85-.4-1.21-.69-.1-.08-.2-.21-.24-.33-.14-.48-.38-.86-.87-1.1-.34-.17-.49-.43-.29-.89.22-.49.3-1.04.36-1.58.15-1.19.88-2.2,2.02-2.35.79-.11,1.69-.17,2.26.66.1.14.24.29.39.34,1.03.34,1.06,1.22,1.13,2.07.04.41,0,.82,0,1.23Z"/>
      </g>
    </g>
  </g>
</svg>