<svg version="1.1" id="Layer_1" xmlns="http://www.w3.org/2000/svg" xmlns:xlink="http://www.w3.org/1999/xlink" x="0px" y="0px"
	 width="100%" viewBox="0 0 1080 681" enable-background="new 0 0 1080 681" xml:space="preserve">
<path fill="none" opacity="1.000000" stroke="#000000" stroke-linecap="round" stroke-linejoin="round" stroke-width="8.000000"
	d="
M701.000000,357.500000 
	C698.998474,345.851135 680.934265,336.760559 669.006348,345.009155 
	C663.625610,348.730133 663.849121,353.373199 669.499756,357.000336 
	C677.133728,361.900482 685.768250,362.689575 693.889893,360.148102 
	C698.524170,358.697968 703.110413,359.366608 707.494263,357.981873 
	C717.218872,354.910126 726.035034,349.700989 735.484741,345.961426 
	C741.586731,343.546692 748.019409,342.378448 753.691040,338.263306 
	C758.493164,334.779083 760.905762,330.951569 761.484558,325.498352 
	C762.858643,312.550659 761.962036,300.249878 754.130005,288.910217 
	C747.501160,279.312744 738.679260,275.292358 727.500916,274.968170 
	C722.495483,274.822998 717.490601,273.951294 712.501831,274.074097 
	C699.344116,274.398132 687.356506,277.336975 676.302429,285.740082 
	C664.287842,294.873352 659.796082,307.808685 653.874817,320.441315 
	C648.185669,332.578644 642.885376,344.937561 636.028442,356.516815 
	C633.440125,360.887573 629.746399,363.981934 625.489197,366.481537 
	C618.340637,370.678741 611.791687,375.742096 604.079285,379.178009 
	C594.179626,383.588348 584.056519,386.813049 573.508606,389.040649 
	C566.060059,390.613739 558.652161,393.347107 551.018921,392.354309 
	C541.895142,391.167633 532.585022,391.098480 523.910278,386.675934 
	C516.765686,383.033478 512.675110,377.505768 510.059509,370.477844 
	C508.773193,367.021637 507.486053,363.614624 505.503479,360.500488 
	C507.708496,357.293671 508.132111,354.150299 507.824005,349.976074 
	C507.221680,341.814819 507.600006,333.372589 512.430664,325.954834 
	C513.724365,323.968262 514.022522,321.414062 514.592834,319.022125 
	C517.944153,304.965546 525.756592,294.409027 538.396301,286.827118 
	C548.468994,280.784973 559.158752,278.715759 570.482727,277.356110 
	C583.105774,275.840454 595.211182,277.802063 606.952087,281.646301 
	C619.874084,285.877228 631.901062,298.154358 632.519897,314.999268 
	C632.924744,326.018097 621.768066,341.087280 611.049500,343.702942 
	C602.896912,345.692413 594.911621,347.096802 586.500244,347.115265 
	C575.832520,347.138672 565.166260,347.990784 554.500183,348.503784 
	C548.999146,348.768341 543.432861,346.980927 538.015259,348.552704 
	C529.289795,351.084198 519.878845,350.476715 511.484009,354.466339 
	C510.940155,354.724792 510.166656,354.500000 509.500000,354.500000 
"/>
<path fill="none" opacity="1.000000" stroke="#000000" stroke-linecap="round" stroke-linejoin="round" stroke-width="10.000000"
	d="
M174.500000,23.000000 
	C182.275604,23.164759 189.809616,25.183775 197.500305,25.997181 
	C205.498962,26.843159 213.485352,28.140646 221.503448,28.388378 
	C233.386658,28.755527 245.376236,28.014450 256.975311,31.093069 
	C266.444672,33.606419 275.750244,37.545555 282.777191,44.234077 
	C289.104034,50.256203 292.994904,58.416031 291.050903,68.010315 
	C290.694061,69.771347 291.107422,71.674004 290.982727,73.498817 
	C290.119476,86.132828 285.001282,97.288971 279.728760,108.606575 
	C276.008148,116.592934 270.340820,123.231483 266.546112,131.022461 
	C262.101501,140.147797 266.502075,147.460938 275.500031,147.473465 
	C284.567047,147.486084 294.036285,148.953049 302.410339,144.818420 
	C310.065918,141.038528 317.811462,140.298630 326.000916,140.450058 
	C331.329376,140.548584 336.671875,140.263916 341.998840,139.978317 
	C351.132812,139.488647 360.148285,140.272552 368.991638,142.532776 
	C378.036865,144.844620 387.297058,144.936447 396.503815,145.428497 
	C402.665894,145.757828 408.794922,145.691895 415.028839,144.677216 
	C425.166870,143.027069 437.431152,128.055252 434.631958,117.465118 
	C432.690155,110.118683 422.623108,99.552155 414.992554,99.136528 
	C411.123199,98.925766 407.298218,98.387291 403.516754,97.875992 
	C394.009155,96.590439 385.067505,99.081802 375.999237,100.996407 
	C370.219513,102.216698 364.400879,104.033974 358.512939,101.963211 
	C348.351349,98.389412 340.150543,91.033798 341.358246,80.483772 
	C341.900085,75.750786 340.738159,70.648399 341.257812,66.028999 
	C342.746246,52.797516 349.345490,42.132240 360.493805,34.490971 
	C366.975830,30.048077 374.289246,27.350727 381.524414,24.563404 
	C387.815491,22.139793 394.607635,23.083124 400.972565,23.758545 
	C407.465271,24.447521 414.061035,23.825687 420.536346,25.885723 
	C437.049500,31.139133 441.351837,37.560215 443.500000,54.500000 
"/>
<path fill="none" opacity="1.000000" stroke="#000000" stroke-linecap="round" stroke-linejoin="round" stroke-width="8.000000"
	d="
M522.000000,246.000000 
	C519.179993,244.009354 516.051636,242.574814 513.049377,240.910873 
	C502.761505,235.209000 502.122772,228.231567 508.564209,219.547623 
	C511.029938,216.223511 514.910828,216.327194 518.482239,217.551819 
	C523.027283,219.110275 526.388916,222.041382 527.500916,226.999802 
	C528.607361,231.933670 528.173340,236.909378 526.358215,241.443253 
	C524.872925,245.153320 521.684937,248.167709 518.428833,250.395966 
	C510.293182,255.963379 502.290771,261.969482 492.492798,264.471863 
	C484.141663,266.604706 475.650604,268.121796 467.011993,266.914124 
	C463.605438,266.437927 460.133484,265.416138 457.034668,263.927795 
	C443.793488,257.568024 430.184570,256.979340 415.985199,259.928680 
	C394.553467,264.380280 379.997345,278.283447 367.046478,294.537018 
	C365.537415,296.430908 364.228729,298.708679 363.570770,301.020142 
	C359.150696,316.548218 352.354065,331.229889 348.138672,346.902832 
	C344.961273,358.716553 339.907928,370.128937 336.448578,381.984985 
	C336.172211,382.932190 335.214142,383.710510 334.491913,384.492523 
	C331.026550,388.244873 327.537781,387.876556 326.654327,382.972198 
	C324.306305,369.937469 319.248749,357.540680 318.756561,344.008850 
	C318.429626,335.019684 316.834869,325.969818 315.759094,316.969025 
	C314.878143,309.598053 313.796051,302.296478 312.536591,294.993683 
	C311.773407,290.568756 309.919220,286.659454 307.469116,283.020813 
	C305.225342,279.688599 301.860779,279.574799 298.999969,282.499969 
	C294.374908,287.229126 292.645050,293.403870 291.643372,299.523468 
	C290.172180,308.511444 286.971924,317.025604 285.280548,325.958435 
	C284.279083,331.247498 284.574738,335.479980 288.000000,339.500000 
"/>
<path fill="none" opacity="1.000000" stroke="#000000" stroke-linecap="round" stroke-linejoin="round" stroke-width="8.000000"
	d="
M575.500000,602.500000 
	C571.766602,599.957153 571.382507,596.031860 570.969910,592.003113 
	C569.675415,579.365356 570.442566,566.518433 568.683716,554.044617 
	C566.616882,539.386414 566.424500,524.586426 564.034973,509.994263 
	C561.876709,496.814331 552.311218,496.226654 545.483459,499.969879 
	C542.535583,501.585999 541.012817,504.287811 539.525513,507.013916 
	C536.276428,512.968933 533.169006,519.001221 529.999451,524.999695 
	C523.834473,536.667297 517.199158,548.116821 511.661255,560.074707 
	C507.849335,568.305725 501.172546,574.004456 495.988678,580.991577 
	C492.038208,586.316345 488.568695,592.091309 482.992096,595.988708 
	C472.512756,603.312378 461.430664,609.329346 448.496338,610.971191 
	C443.778564,611.570007 439.381561,613.603394 434.499451,613.551147 
	C423.511658,613.433411 413.134827,609.996582 402.512604,607.935059 
	C396.301208,606.729553 391.017242,604.346008 386.278992,599.203674 
	C376.866119,588.988037 376.323975,589.476196 373.005890,573.498779 
	C370.961395,563.653931 371.468597,553.955994 375.016327,544.506104 
	C377.093689,538.972595 379.092438,533.390015 381.544250,528.020203 
	C389.501404,510.593109 403.511230,500.174744 421.555206,495.200226 
	C425.849518,494.016327 430.855804,495.102020 435.494873,495.552704 
	C442.987671,496.280640 450.583984,494.336456 457.999390,496.502106 
	C476.141724,501.800568 491.899445,510.185364 498.427399,529.524475 
	C501.689514,539.188354 499.052826,548.182007 492.932343,555.946655 
	C486.814484,563.707886 478.981110,570.116028 468.980530,570.580383 
	C463.769592,570.822327 457.753418,571.299744 452.517151,568.961609 
	C446.181915,566.132812 439.808167,563.305176 433.631927,560.234619 
	C429.477661,558.169312 425.289337,557.126404 420.989960,556.039734 
	C418.221436,555.339905 417.042694,556.709351 417.500000,559.500000 
"/>
<path fill="none" opacity="1.000000" stroke="#000000" stroke-linecap="round" stroke-linejoin="round" stroke-width="8.000000"
	d="
M689.500000,500.000000 
	C693.670898,504.538300 699.817566,504.801117 705.059204,506.848480 
	C716.405151,511.280243 725.763916,517.432739 731.206848,528.901855 
	C732.342346,531.294495 733.175354,533.659668 733.358521,536.011047 
	C733.659546,539.876587 734.478027,543.582520 736.087158,546.958435 
	C738.498230,552.016602 737.416077,557.373169 737.741394,562.516357 
	C737.974670,566.203918 735.480774,569.702576 733.146729,573.100769 
	C720.741272,591.162720 702.752869,598.088135 681.993713,599.400146 
	C672.263733,600.015137 662.680359,601.628113 653.001099,602.512146 
	C645.502625,603.197083 638.062622,604.609009 630.500244,604.484070 
	C622.037354,604.344299 619.224670,599.664246 623.013245,592.006531 
	C628.087769,581.749268 633.476990,571.564880 636.401184,560.473938 
	C640.575806,544.640442 650.083557,531.451538 657.222229,517.110596 
	C659.251160,513.034851 663.156860,509.374054 667.529785,507.056152 
	C670.668396,505.392517 673.272644,503.439301 674.500000,500.000000 
"/>
<path fill="none" opacity="1.000000" stroke="#000000" stroke-linecap="round" stroke-linejoin="round" stroke-width="8.000000"
	d="
M987.500000,605.000000 
	C979.178223,607.302185 974.266785,614.486694 967.475098,618.962158 
	C954.555054,627.476013 941.265198,635.235596 926.020081,639.079712 
	C920.819031,640.391235 916.000488,643.064697 911.076782,645.178772 
	C900.588440,649.682312 889.236084,649.938965 878.500977,653.003357 
	C875.661194,653.814026 872.650818,654.292664 870.034058,655.569763 
	C862.047913,659.467407 853.359802,658.322937 845.002502,659.517334 
	C826.494507,662.162476 807.877075,662.675415 789.536682,659.300598 
	C773.208496,656.295959 756.736328,653.533264 741.423889,646.157959 
	C731.327759,641.295105 719.778076,640.901794 708.977661,638.085693 
	C704.445251,636.903931 699.681824,636.511963 694.994751,636.053467 
	C691.780762,635.739014 688.547729,636.038391 686.000000,638.500000 
"/>
<path fill="none" opacity="1.000000" stroke="#000000" stroke-linecap="round" stroke-linejoin="round" stroke-width="9.000000"
	d="
M160.000000,533.000000 
	C159.658035,527.301086 156.466278,522.816223 152.401764,519.625122 
	C141.078308,510.735107 128.814819,505.384766 113.461502,507.168640 
	C101.704109,508.534698 90.596565,511.489502 79.515671,515.048767 
	C72.208405,517.395935 66.190468,522.136719 59.995838,526.494080 
	C49.405010,533.943787 46.429028,545.736450 42.493301,556.997681 
	C39.878677,564.478882 40.773628,571.862488 43.567177,578.973633 
	C46.650429,586.822205 48.007221,595.428162 54.928368,601.580566 
	C65.167870,610.682861 76.770409,615.724304 90.499413,616.026733 
	C102.727158,616.296082 114.929932,615.541687 126.971962,613.805542 
	C134.797592,612.677307 143.226410,610.486328 148.688660,604.705811 
	C152.321838,600.860962 156.476288,598.432434 160.511673,595.516174 
	C161.969757,594.462463 163.805176,593.510803 165.475113,594.073792 
	C172.267471,596.363770 178.842667,594.137512 185.500671,593.507019 
	C200.641525,592.073303 215.788055,590.116211 230.991516,592.552917 
	C235.047607,593.202942 239.000000,594.500000 243.000000,595.500000 
"/>
<path fill="none" opacity="1.000000" stroke="#000000" stroke-linecap="round" stroke-linejoin="round" stroke-width="10.000000"
	d="
M158.000000,76.500000 
	C155.155167,75.344833 153.707764,72.757050 152.022827,70.483086 
	C143.386627,58.827801 131.382782,52.327484 117.465546,50.817596 
	C108.301163,49.823349 98.814056,51.709850 89.478325,52.817295 
	C77.379852,54.252472 69.120811,61.845531 59.915798,68.381416 
	C52.549049,73.612068 48.678432,81.802788 42.056229,87.564629 
	C41.466179,88.078026 41.514542,89.501678 41.525528,90.499718 
	C41.582317,95.657837 41.202286,100.563370 39.205887,105.581902 
	C37.311123,110.344948 39.083359,115.766853 40.644737,120.451759 
	C44.858921,133.096390 51.160782,144.348648 63.976089,150.549423 
	C70.367241,153.641830 77.289543,154.962875 84.040672,156.293671 
	C95.524826,158.557449 107.222725,160.263336 118.998039,159.930664 
	C131.370132,159.581131 142.807953,156.073807 152.483643,147.980438 
	C155.384674,145.553833 157.773651,142.743652 157.000000,138.500000 
"/>
<path fill="none" opacity="1.000000" stroke="#000000" stroke-linecap="round" stroke-linejoin="round" stroke-width="8.000000"
	d="
M656.500000,633.000000 
	C654.833313,635.000000 653.201172,637.029968 651.493652,638.994507 
	C646.065918,645.239380 647.462769,651.063354 654.967529,655.060974 
	C660.042786,657.764587 665.382874,659.365967 671.000671,659.408936 
	C678.331970,659.464905 685.743713,660.368469 692.997253,658.489319 
	C698.926392,656.953186 699.426025,652.431946 696.875061,650.138977 
	C691.254456,645.086792 686.879395,638.212219 679.452881,635.635742 
	C673.257507,633.486389 666.609924,632.801331 660.000854,632.482178 
	C658.497986,632.409668 656.833191,633.061157 655.513489,631.983521 
	C649.728210,627.259399 643.552185,630.637329 637.498596,630.974854 
	C624.907898,631.676941 613.654602,637.641968 601.488953,639.941711 
	C597.820312,640.635254 594.781799,642.540833 591.501953,644.004333 
	C574.974365,651.379517 557.887146,653.447083 539.980652,650.362366 
	C530.778442,648.777161 522.144104,646.003113 513.387695,642.807800 
	C504.528748,639.574890 495.067627,637.604248 485.521210,636.339783 
	C477.584320,635.288574 469.877502,632.609497 461.989471,631.053406 
	C450.692993,628.825012 439.681396,628.617615 428.918060,634.346069 
	C422.061920,637.995056 421.169098,643.255920 426.006104,648.994873 
	C427.299072,650.528870 428.642639,652.022278 430.005920,653.494507 
	C431.818665,655.452087 431.919220,657.674255 430.983429,659.993286 
	C429.996399,662.439392 427.828400,662.810486 425.501953,663.021606 
	C418.148712,663.688660 411.096497,661.903503 404.002106,660.489380 
	C392.494263,658.195496 381.006653,655.799927 369.497711,653.511475 
	C361.514771,651.924194 353.601624,650.073242 345.514832,648.897949 
	C326.092407,646.075134 306.681946,642.557312 287.029572,645.218384 
	C280.796967,646.062317 274.599670,644.841858 268.500000,646.250000 
"/>
<path fill="none" opacity="1.000000" stroke="#000000" stroke-linecap="round" stroke-linejoin="round" stroke-width="8.000000"
	d="
M919.500000,280.500000 
	C918.500000,281.166656 917.383057,281.708466 916.517700,282.518890 
	C905.170837,293.145660 891.363403,291.638397 878.036194,289.294220 
	C862.354675,286.535950 847.826721,279.577789 833.117249,273.706299 
	C827.473450,271.453522 821.930786,268.075012 816.394104,265.204224 
	C801.946289,257.712982 787.244690,250.852692 771.055054,247.252319 
	C758.659302,244.495621 746.216187,241.683197 733.936523,238.225388 
	C726.108948,236.021225 717.688354,235.742966 709.495605,235.052048 
	C690.867126,233.481079 672.136475,232.742249 653.512939,233.741547 
	C637.499634,234.600800 621.375732,234.715195 605.477478,237.887009 
	C589.180054,241.138412 572.461487,241.371353 556.013794,243.601852 
	C548.184204,244.663620 540.479309,246.309479 532.492981,245.576248 
	C530.337830,245.378403 528.440430,244.738281 526.500000,244.000000 
"/>
<path fill="none" opacity="1.000000" stroke="#000000" stroke-linecap="round" stroke-linejoin="round" stroke-width="8.000000"
	d="
M818.000000,267.500000 
	C814.256714,274.180176 814.603760,281.990753 812.159424,289.055145 
	C811.742737,290.259399 811.499268,291.910370 810.904785,292.945312 
	C803.935486,305.078369 801.311523,318.931030 795.464417,331.483429 
	C793.011353,336.749603 789.907837,341.718903 787.561340,347.027100 
	C784.132507,354.783722 781.529480,362.746002 781.925903,371.503357 
	C782.312012,380.032928 787.713501,387.220184 795.992676,389.526367 
	C802.583740,391.362305 808.919861,391.542603 815.549133,389.135376 
	C820.635437,387.288422 826.361572,387.208954 831.456177,385.377991 
	C839.950195,382.325287 848.201660,378.580414 856.488708,374.974030 
	C862.893127,372.186920 869.393921,370.046967 876.500000,370.500000 
"/>
<path fill="none" opacity="1.000000" stroke="#000000" stroke-linecap="round" stroke-linejoin="round" stroke-width="11.000000"
	d="
M157.000000,306.000000 
	C157.430969,302.927612 156.136658,300.512970 153.991760,298.508820 
	C143.942581,289.119080 132.398773,281.880096 118.947952,279.268036 
	C109.540718,277.441193 99.802650,277.614532 89.959267,279.255676 
	C72.639122,282.143280 59.892082,292.051178 48.692822,304.178070 
	C43.070522,310.266022 40.545101,318.933441 39.272179,327.042725 
	C37.750126,336.739136 37.223099,346.903534 40.586147,356.469727 
	C44.218689,366.802490 47.951576,377.556519 59.049335,382.386658 
	C68.077225,386.315857 77.288803,389.482025 87.481003,390.251617 
	C100.706825,391.250244 111.847008,385.951416 123.523758,381.563232 
	C138.241760,376.032135 151.213287,367.256744 165.006134,360.011658 
	C166.126358,359.423279 167.310211,358.934265 168.504929,358.514008 
	C170.821411,357.699127 173.523224,356.382965 175.393387,358.590332 
	C177.054214,360.550598 177.671539,363.293304 176.516144,366.006866 
	C176.395981,366.289062 176.640015,366.772095 176.479813,366.984802 
	C169.803436,375.849670 168.119598,387.430969 160.931000,395.941711 
	C156.993790,400.603058 159.189148,406.037842 158.000000,411.000000 
"/>
<path fill="none" opacity="1.000000" stroke="#000000" stroke-linecap="round" stroke-linejoin="round" stroke-width="10.000000"
	d="
M173.500000,132.500000 
	C173.245499,127.490402 176.781662,124.285049 179.622803,121.109879 
	C182.859833,117.492264 185.524582,113.617020 188.031250,109.519112 
	C193.262299,100.967354 200.206192,93.735992 206.457672,85.965950 
	C213.432404,77.297005 221.767410,69.793549 228.017487,60.511768 
	C230.493561,56.834614 234.456726,55.368412 238.516632,54.586319 
	C241.766052,53.960350 244.812469,51.125118 248.553558,53.928535 
	C252.257462,56.704075 251.413910,60.392525 251.499985,64.000000 
	C251.812302,77.090332 250.386566,89.919518 246.575470,102.522820 
	C244.211823,110.339363 242.501160,118.328629 241.315903,126.473206 
	C240.532104,131.859085 241.391388,137.158585 240.603195,142.515182 
	C238.834991,154.531921 248.088150,167.740524 258.467041,170.618820 
	C269.510651,173.681458 280.535370,176.606918 291.980255,174.397705 
	C303.260040,172.220383 314.741852,171.695496 326.003448,169.517883 
	C334.925385,167.792694 343.886658,166.008911 352.999237,166.087158 
	C359.836395,166.145889 366.684509,166.831284 373.494568,167.551285 
	C379.354065,168.170807 385.063812,168.544525 391.025421,167.674149 
	C398.890900,166.525787 406.809143,167.827377 414.500000,170.000000 
"/>
<path fill="none" opacity="1.000000" stroke="#000000" stroke-linecap="round" stroke-linejoin="round" stroke-width="8.000000"
	d="
M422.500000,628.500000 
	C417.801697,628.688904 413.771942,626.940308 409.411102,625.226135 
	C397.165710,620.412781 384.658508,616.178772 370.988861,617.912292 
	C363.217102,618.897827 355.338593,619.296570 347.498840,619.434998 
	C333.429047,619.683472 319.757904,622.627075 306.005280,625.030212 
	C295.531067,626.860291 285.159668,628.468201 274.479401,626.092590 
	C266.663300,624.353943 258.868378,622.787476 251.480133,619.545288 
	C247.185501,617.660645 245.477783,614.247925 245.034485,609.996399 
	C244.549561,605.345520 244.548981,600.636597 243.904526,596.013306 
	C243.604538,593.861145 245.226471,592.783630 245.651489,591.036865 
	C247.380096,583.932373 247.934799,576.684753 249.030273,569.504639 
	C251.636459,552.422668 252.208267,535.245239 252.092636,517.999390 
	C252.065262,513.915405 250.665344,510.588318 248.447571,507.538116 
	C245.876678,504.002319 241.073593,503.232697 237.545837,506.057251 
	C228.123444,513.601318 218.681122,520.841858 211.745163,531.331482 
	C203.174606,544.293213 196.123779,558.195312 186.649261,570.613892 
	C181.748077,577.038086 175.107300,581.427063 169.775970,587.296509 
	C167.969101,589.285767 166.393555,591.272400 165.000000,593.500000 
"/>
<path fill="none" opacity="1.000000" stroke="#000000" stroke-linecap="round" stroke-linejoin="round" stroke-width="8.000000"
	d="
M501.500000,307.250000 
	C499.570374,306.811462 497.766968,306.188232 496.492889,304.505402 
	C490.183929,296.172150 481.374969,291.606232 472.061462,287.365051 
	C460.746857,282.212555 448.943176,281.692169 437.004944,282.133789 
	C431.263611,282.346161 425.888123,285.055115 421.066223,288.104736 
	C416.723816,290.851105 412.269073,293.089417 407.543549,295.102264 
	C394.040314,300.854095 387.333221,311.774963 385.511688,326.001495 
	C384.936768,330.491913 384.773682,335.051300 383.941864,339.489105 
	C382.312836,348.179871 385.194702,355.261505 390.421265,362.060516 
	C396.568451,370.057190 403.067047,377.518738 411.999847,382.500305 
	C422.506042,388.359314 433.765015,389.766541 445.497162,387.981293 
	C459.211914,385.894348 471.743164,381.417480 482.647552,372.174072 
	C489.023132,366.769684 496.417480,362.215332 505.000000,360.500000 
"/>
<path fill="none" opacity="1.000000" stroke="#000000" stroke-linecap="round" stroke-linejoin="round" stroke-width="8.000000"
	d="
M284.000000,333.000000 
	C273.500000,330.166656 262.928589,327.569122 252.524673,324.418518 
	C245.380936,322.255188 243.470688,318.301331 245.026428,310.505280 
	C246.445251,303.395294 247.404724,296.275848 247.025345,288.998688 
	C246.807281,284.816010 248.768738,281.021271 249.499969,277.000000 
	C250.418625,271.947998 251.226379,266.911316 247.565384,262.442963 
	C244.402100,262.681000 241.692108,263.620636 239.481277,265.982483 
	C234.011948,271.825317 229.327621,278.189178 226.003510,285.501587 
	C225.478363,286.656830 225.329315,288.269104 224.449905,288.933716 
	C213.743530,297.024689 207.108154,309.156189 195.712708,316.816437 
	C189.769379,320.811676 183.791901,321.992096 177.491074,322.336792 
	C166.512619,322.937378 155.483978,322.542542 144.495743,321.547058 
	C140.407166,321.176666 136.326508,321.557159 133.000000,324.500000 
"/>
<path fill="none" opacity="1.000000" stroke="#000000" stroke-linecap="round" stroke-linejoin="round" stroke-width="8.000000"
	d="
M680.500000,618.250000 
	C699.939575,618.711914 717.301331,611.213135 735.095520,604.763489 
	C744.093872,601.502014 751.862854,597.020935 758.991272,590.989685 
	C762.882812,587.697021 768.044800,586.855957 772.101501,583.627502 
	C777.762512,579.122375 782.328918,574.365845 784.140930,567.034851 
	C785.149658,562.953674 788.484070,559.743896 790.679626,556.108459 
	C796.153259,547.044922 801.540771,537.792908 809.492920,530.492310 
	C812.140747,528.061401 812.497681,524.254944 814.555115,521.541809 
	C820.341370,513.911438 827.793701,507.729523 833.557373,500.043030 
	C834.657227,498.576294 836.343262,497.079590 838.034180,496.628082 
	C841.099731,495.809601 844.261841,494.936249 846.616638,498.931244 
	C849.145081,503.220734 850.822021,507.350800 851.156982,512.489746 
	C851.926025,524.286499 847.727356,535.175476 846.049011,546.507263 
	C845.413879,550.795898 845.075989,555.165405 845.054810,559.500244 
	C845.013611,567.930603 842.094055,575.968933 842.144775,584.502136 
	C842.164185,587.751282 841.011169,591.439636 841.011230,595.000000 
	C841.011475,613.083618 860.581787,626.744568 877.500549,620.501526 
	C884.746399,617.827820 888.373047,611.865601 892.120361,605.571655 
	C898.430664,594.972839 902.840759,583.579407 906.308960,571.943054 
	C910.080811,559.287781 916.302063,547.685669 920.500854,535.168030 
	C926.051819,518.619141 937.368530,505.334503 954.503784,498.509460 
	C959.309265,496.595428 964.582581,497.421814 969.507263,496.025543 
	C982.796570,492.257690 995.548218,495.071686 1006.839722,501.770172 
	C1015.575256,506.952423 1019.919006,516.080933 1021.663391,526.472595 
	C1022.909058,533.892944 1022.875854,541.153992 1020.341858,547.940979 
	C1016.320312,558.712097 1010.243164,568.567566 999.901062,574.322205 
	C993.946411,577.635559 987.000000,579.166626 980.500000,581.500000 
"/>
<path fill="none" opacity="1.000000" stroke="#000000" stroke-linecap="round" stroke-linejoin="round" stroke-width="7.000000"
	d="
M978.000000,580.000000 
	C964.138855,584.958679 951.786926,581.755737 940.511169,572.985657 
	C937.046509,570.290833 937.871094,565.354919 941.994690,562.990784 
	C953.754272,556.248962 970.562378,562.133850 976.510620,574.995117 
	C980.373901,583.348328 984.752625,591.494995 986.982605,600.504333 
	C989.512085,610.723450 997.117676,617.118652 1004.569275,623.418030 
	C1012.435364,630.067871 1032.911133,628.074402 1040.000000,620.500061 
	C1043.930542,616.300354 1043.149414,608.488953 1038.505493,604.992737 
	C1032.312744,600.330383 1025.349976,596.749023 1017.941040,595.301941 
	C1012.835449,594.304749 1007.108643,595.758057 1001.995605,597.989868 
	C997.683594,599.872009 993.333313,601.666687 989.000000,603.500000 
"/>
<path fill="none" opacity="1.000000" stroke="#000000" stroke-linecap="round" stroke-linejoin="round" stroke-width="8.000000"
	d="
M784.000000,566.000000 
	C777.675415,563.498047 774.367065,557.970642 771.612793,552.443787 
	C765.806885,540.793274 758.695435,529.910889 752.371582,518.571594 
	C746.470459,507.990265 737.399658,500.017273 726.890503,494.197784 
	C722.620483,491.833313 717.282349,490.624329 711.972656,492.419067 
	C710.826599,492.806427 709.337585,492.109955 707.999268,492.009521 
	C701.037048,491.486969 694.459839,492.058350 689.992920,498.495087 
	C689.504211,499.199280 689.029602,500.044647 688.000488,499.990570 
	C682.420593,499.697449 676.739319,500.839630 671.449585,497.581879 
	C667.282227,495.015381 662.582214,493.768463 657.493652,494.452850 
	C654.361206,494.874146 651.159119,494.745026 648.001282,495.015228 
	C634.258301,496.191254 625.300110,503.836212 618.356445,515.413879 
	C610.103271,529.174805 605.251465,544.257324 599.589172,559.034180 
	C596.709900,566.548096 591.864502,573.470093 591.957092,582.000488 
	C591.960632,582.330139 591.245850,582.614868 591.013245,583.007812 
	C588.159546,587.829041 585.544373,592.809998 582.404236,597.434998 
	C580.992981,599.513611 579.438416,601.830933 576.520935,602.581360 
	C575.141357,602.936096 574.466675,604.433350 574.500000,606.000000 
"/>
<path fill="none" opacity="1.000000" stroke="#000000" stroke-linecap="round" stroke-linejoin="round" stroke-width="9.000000"
	d="
M382.500000,599.000000 
	C377.257141,603.471497 375.742065,604.355042 368.990417,601.019409 
	C366.717712,599.896606 364.192322,599.237915 362.026886,597.954651 
	C355.949738,594.353149 350.215271,595.612671 343.945953,597.848450 
	C335.969727,600.692993 327.581329,602.319763 319.455231,604.856567 
	C310.989227,607.499390 302.254974,609.720215 293.475098,610.796875 
	C284.749695,611.866882 275.920959,615.039551 266.939392,610.623291 
	C260.686890,607.548889 258.176270,603.382690 259.445557,596.489990 
	C262.759216,578.495117 270.449249,562.525818 279.753052,546.853394 
	C288.335358,532.396423 289.478180,516.386841 282.470093,500.513214 
	C279.249664,493.218933 273.347504,489.893433 265.527191,488.361267 
	C249.081421,485.139252 232.640579,484.048218 216.000031,486.000305 
	C210.333145,486.665100 204.679245,487.495422 198.995087,487.936707 
	C195.794983,488.185150 195.028824,489.726135 195.500000,492.500000 
"/>
<path fill="none" opacity="1.000000" stroke="#000000" stroke-linecap="round" stroke-linejoin="round" stroke-width="8.000000"
	d="
M126.500000,323.500000 
	C130.559235,323.470795 133.109940,325.717194 136.174789,328.291931 
	C142.383606,333.507965 150.083389,336.453186 158.000488,338.498108 
	C168.998566,341.338867 180.037003,344.032013 190.988678,347.041199 
	C200.312012,349.602997 206.878143,356.086792 212.446152,363.540222 
	C217.350464,370.105286 223.684402,375.493134 227.906586,382.555847 
	C228.613327,383.738068 229.272217,383.274658 229.997559,383.507599 
	C232.004623,384.152252 234.268829,384.436005 235.950226,385.573578 
	C241.251938,389.160583 246.319748,389.450073 251.521591,385.528625 
	C252.026794,385.147797 252.833328,385.166687 253.500000,385.000000 
"/>
<path fill="none" opacity="1.000000" stroke="#000000" stroke-linecap="round" stroke-linejoin="round" stroke-width="10.000000"
	d="
M705.000000,359.500000 
	C707.882874,370.806885 713.986084,380.430328 721.061279,389.451965 
	C724.251526,393.519836 729.300964,395.491272 734.037598,396.272003 
	C740.410156,397.322388 746.507690,399.702118 753.000183,399.996613 
	C756.102844,400.137390 759.207214,400.143005 761.994141,398.490143 
	C765.564636,396.372681 769.536682,395.459564 773.755798,394.460388 
	C774.198303,392.846008 775.744202,391.531006 775.500000,389.500000 
"/>
<path fill="none" opacity="1.000000" stroke="#000000" stroke-linecap="round" stroke-linejoin="round" stroke-width="9.000000"
	d="
M272.500000,426.500000 
	C272.000000,426.166687 271.450623,425.487732 271.007294,425.551117 
	C262.316284,426.792938 257.165100,420.139771 251.700287,415.750610 
	C241.814240,407.810486 232.236221,399.401520 223.710236,389.756134 
	C219.627380,385.137268 213.247635,381.358063 206.486694,380.622162 
	C198.809448,379.786530 192.059280,382.798370 185.981339,387.475739 
	C180.625610,391.597321 176.793427,397.364624 171.013245,401.020935 
	C167.420975,403.293304 164.103165,406.103943 159.500000,406.000000 
"/>
<path fill="none" opacity="1.000000" stroke="#000000" stroke-linecap="round" stroke-linejoin="round" stroke-width="9.000000"
	d="
M417.500000,556.500000 
	C414.455292,555.227661 411.168304,555.485413 407.998016,555.013428 
	C397.353333,553.428528 385.909210,570.041504 389.734924,579.111816 
	C392.228485,585.023743 393.404633,592.209778 387.000000,597.500000 
"/>
<path fill="none" opacity="1.000000" stroke="#000000" stroke-linecap="round" stroke-linejoin="round" stroke-width="9.000000"
	d="
M276.500000,349.500000 
	C267.489838,346.949799 258.985840,347.777130 250.976562,352.963806 
	C247.136841,355.450348 245.880844,358.510071 246.936081,363.014984 
	C248.580231,370.033997 251.341125,376.665894 253.428467,383.521790 
	C254.163757,385.936768 255.462341,385.903870 256.972260,384.955841 
	C260.421356,382.790253 263.405212,380.144745 265.544037,376.526031 
	C268.364838,371.753448 271.560455,367.204102 274.480988,362.488220 
	C276.847229,358.667389 278.454742,354.624268 277.000000,350.000000 
"/>
<path fill="none" opacity="1.000000" stroke="#000000" stroke-linecap="round" stroke-linejoin="round" stroke-width="10.000000"
	d="
M99.500000,123.000000 
	C101.468193,122.817558 102.673302,124.610123 103.365395,125.594627 
	C108.357895,132.696518 116.076622,133.114685 123.494141,134.530685 
	C131.946152,136.144119 140.465302,136.089493 149.000000,136.000671 
	C149.499954,135.995468 150.072174,135.838135 150.489243,136.024109 
	C157.556061,139.175186 164.051254,136.278992 170.469879,133.918121 
	C174.136322,132.569550 177.471115,134.357437 181.006012,134.075272 
	C188.375610,133.487045 195.538406,131.243835 203.000244,131.492798 
	C213.832626,131.854218 224.671783,132.059158 235.496475,132.574158 
	C238.268753,132.706039 240.842987,132.103012 243.500000,131.750000 
"/>
<path fill="none" opacity="1.000000" stroke="#000000" stroke-linecap="round" stroke-linejoin="round" stroke-width="8.000000"
	d="
M785.000000,571.000000 
	C798.151855,580.054199 811.828064,587.778259 828.499268,587.462769 
	C832.358826,587.389709 836.232178,586.326599 840.000000,588.000000 
"/>
<path fill="none" opacity="1.000000" stroke="#000000" stroke-linecap="round" stroke-linejoin="round" stroke-width="9.000000"
	d="
M891.500000,572.750000 
	C880.541992,574.277344 870.357178,577.999146 860.441711,582.881592 
	C855.101440,585.511230 849.115173,586.644226 843.000000,586.000000 
"/>
<path fill="none" opacity="1.000000" stroke="#000000" stroke-linecap="round" stroke-linejoin="round" stroke-width="7.000000"
	d="
M111.000000,589.000000 
	C120.831329,594.970093 131.711334,597.262024 143.002563,597.958374 
	C146.151428,598.152588 149.354034,597.740173 152.000000,600.000000 
"/>
<path fill="none" opacity="1.000000" stroke="#000000" stroke-linecap="round" stroke-linejoin="round" stroke-width="9.000000"
	d="
M255.500000,386.000000 
	C259.198639,396.113037 263.924866,405.771515 268.454681,415.521057 
	C269.746216,418.300873 271.475616,421.170715 270.000000,424.500000 
"/>
</svg>